<?xml version="1.0" encoding="utf-8"?>
<!-- Generator: Adobe Illustrator 16.0.0, SVG Export Plug-In . SVG Version: 6.00 Build 0)  -->
<!DOCTYPE svg PUBLIC "-//W3C//DTD SVG 1.1//EN" "http://www.w3.org/Graphics/SVG/1.1/DTD/svg11.dtd">
<svg version="1.1" id="Layer_1" xmlns="http://www.w3.org/2000/svg" xmlns:xlink="http://www.w3.org/1999/xlink" x="0px" y="0px"
	 width="726px" height="238px" viewBox="38.5 120.5 726 238" enable-background="new 38.5 120.5 726 238" xml:space="preserve">
<g id="Layer_1_1_">
	<g>
		<g>
			<g>
				<path fill="#1C75BC" d="M133.789,256.667c0,0-20.136,10.596-17.947,6.681c5.058-9.043,17.443-23.687,5.621-48.05
					c-1.712-3.521,10.173,2.106,17.173,8.281c0,0,0.465-13.006-25.17-26.494c-3.478-1.833-9.798,2.207-5.355,8.705
					c4.773,6.979,11.1,23.411,8.458,32.742c-2.255,7.99-9.842,18.86-16.478,28.83c-2.484,3.73,1.807,9.069,7.888,7.34
					C107.978,274.702,125.672,270.823,133.789,256.667z"/>
				<path fill="#1C75BC" d="M104.501,223.109c6.86,3.955,9.204,12.728,5.248,19.584c-3.958,6.856-12.73,9.206-19.587,5.252
					c-6.861-3.963-9.204-12.734-5.248-19.592C88.876,221.496,97.645,219.148,104.501,223.109z"/>
			</g>
			<g>
				<path fill="#8DC63F" d="M172.292,292.848c0,0-0.895,22.736-3.188,18.885c-5.303-8.902-11.793-26.949-38.8-28.895
					c-3.908-0.28,6.91-7.756,15.758-10.732c0,0-11.032-6.904-35.532,8.551c-3.325,2.095-2.987,9.595,4.861,8.99
					c8.43-0.641,25.824,2.093,32.587,9.046c5.788,5.948,11.41,17.955,16.729,28.686c1.986,4.02,8.753,2.971,10.297-3.16
					C175.005,324.219,180.493,306.958,172.292,292.848z"/>
				<path fill="#8DC63F" d="M128.584,301.431c6.857-3.958,15.628-1.608,19.583,5.247c3.962,6.859,1.612,15.63-5.243,19.592
					c-6.861,3.961-15.63,1.605-19.588-5.252C119.378,314.159,121.728,305.39,128.584,301.431z"/>
			</g>
			<g>
				<path fill="#05A67A" d="M222.877,277.594c0,0,19.245,12.142,14.759,12.201c-10.36,0.141-29.232-3.263-44.422,19.155
					c-2.194,3.246-3.259-9.86-1.413-19.011c0,0-11.5,6.1-10.361,35.047c0.151,3.926,6.813,7.382,10.218,0.286
					c3.655-7.623,14.725-21.321,24.124-23.698c8.049-2.039,21.255-0.905,33.208-0.145c4.473,0.285,6.952-6.1,2.411-10.5
					C251.401,290.93,239.198,277.543,222.877,277.594z"/>
				<path fill="#05A67A" d="M208.458,319.739c-0.002-7.92,6.423-14.339,14.339-14.339c7.917,0,14.337,6.419,14.337,14.339
					c0,7.917-6.42,14.336-14.336,14.336C214.876,334.074,208.458,327.656,208.458,319.739z"/>
			</g>
			<g>
				<path fill="#F15A29" d="M234.959,226.158c0,0,20.137-10.596,17.949-6.679c-5.06,9.04-17.448,23.686-5.622,48.044
					c1.71,3.524-10.174-2.103-17.174-8.277c0,0-0.465,13.006,25.173,26.495c3.477,1.833,9.796-2.21,5.354-8.706
					c-4.771-6.979-11.102-23.41-8.459-32.739c2.256-7.993,9.842-18.865,16.479-28.832c2.483-3.731-1.809-9.07-7.89-7.34
					C260.77,208.124,243.075,212.002,234.959,226.158z"/>
				<path fill="#F15A29" d="M264.246,259.717c-6.858-3.955-9.204-12.729-5.248-19.585c3.96-6.857,12.732-9.21,19.588-5.252
					c6.86,3.961,9.206,12.734,5.248,19.588C279.873,261.327,271.104,263.678,264.246,259.717z"/>
			</g>
			<g>
				<path fill="#F7941E" d="M196.455,189.978c0,0,0.893-22.736,3.19-18.882c5.303,8.899,11.792,26.946,38.799,28.891
					c3.908,0.279-6.91,7.756-15.757,10.733c0,0,11.03,6.902,35.531-8.552c3.325-2.098,2.986-9.593-4.862-8.992
					c-8.428,0.645-25.822-2.091-32.586-9.042c-5.788-5.95-11.409-17.956-16.73-28.688c-1.985-4.016-8.755-2.969-10.296,3.16
					C193.744,158.605,188.253,175.869,196.455,189.978z"/>
				<path fill="#F7941E" d="M240.166,181.392c-6.858,3.962-15.631,1.611-19.587-5.245c-3.96-6.858-1.611-15.631,5.245-19.591
					c6.86-3.959,15.63-1.604,19.586,5.25C249.369,168.666,247.021,177.433,240.166,181.392z"/>
			</g>
			<g>
				<path fill="#27AAE1" d="M145.872,205.232c0,0-19.248-12.143-14.762-12.201c10.362-0.145,29.235,3.262,44.421-19.156
					c2.196-3.246,3.261,9.86,1.416,19.011c0,0,11.498-6.1,10.36-35.047c-0.151-3.928-6.814-7.379-10.218-0.283
					c-3.655,7.621-14.725,21.318-24.123,23.697c-8.048,2.038-21.258,0.908-33.208,0.143c-4.473-0.286-6.953,6.1-2.411,10.5
					C117.347,191.896,129.551,205.285,145.872,205.232z"/>
				<circle fill="#27AAE1" cx="145.95" cy="163.087" r="14.339"/>
			</g>
		</g>
		<path fill="#28B6DC" d="M194.583,207.167l-7.76-13.404l-5.644,9.877l-15.662,27.232l0,0l0,0c0.987-0.281,1.975-0.424,3.103-0.706
			c2.822-0.563,5.644-0.986,8.608-1.411l9.595-16.649l8.889,15.239c0.987,0,1.976,0,2.964,0c2.257,0,4.515,0,6.772,0.142
			c0.282,0,0.563,0,0.846,0L194.583,207.167z"/>
		<path fill="#05A67A" d="M241.852,234.964c-0.846-0.141-1.552-0.423-2.399-0.564c-4.657-0.987-9.735-1.834-14.957-2.397
			c-2.682-0.282-5.361-0.425-8.043-0.706l0,0c-2.822-0.142-5.503-0.282-8.466-0.282h-0.14c-2.542,0-5.222,0-7.62,0.141
			c-0.846,0-1.693,0.142-2.54,0.142c-3.951,0.281-7.902,0.706-11.571,1.129c-3.668,0.563-7.196,1.128-10.583,1.975
			c-0.565,0.142-1.128,0.282-1.693,0.424c-3.951,0.987-7.761,2.117-11.006,3.386c-6.35,2.399-11.428,5.361-14.957,8.607
			c-1.552,1.412-2.681,2.963-3.668,4.515l0,0c-0.989,1.835-1.552,3.811-1.552,5.786v0.141c0.14,9.454,12.839,17.779,31.748,22.294
			c-11.006-4.797-17.779-11.289-17.779-18.483c0-2.399,0.706-4.656,2.116-6.915h62.649l-6.632-11.429l0,0l-4.796-8.325
			c4.373-0.424,8.889-0.563,13.404-0.563c6.208,0,12.275,0.282,17.918,0.987C241.569,235.104,241.71,235.104,241.852,234.964
			c0.282,0.141,0.423,0.141,0.705,0.141C242.275,235.104,242.134,235.104,241.852,234.964z M169.467,245.264
			c0.423-0.282,0.989-0.563,1.412-0.846c7.478-3.95,17.637-6.915,29.208-8.748l5.502,9.453h-36.122V245.264L169.467,245.264z"/>
	</g>
	<g enable-background="new    ">
		<path fill="#3D3D3C" d="M282.3,311.206l-0.737,2.004h-1.332l3.93-10.251h0.852l3.938,10.251h-1.332l-0.745-2.004H282.3z
			 M286.445,310.031l-1.861-5.024l-1.854,5.024H286.445z"/>
		<path fill="#3D3D3C" d="M297.454,302.958v10.251h-0.945l-4.989-7.767v7.767h-1.231v-10.251h0.952l4.989,7.76v-7.76H297.454z"/>
		<path fill="#3D3D3C" d="M300.869,311.206l-0.737,2.004H298.8l3.93-10.251h0.852l3.937,10.251h-1.332l-0.745-2.004H300.869z
			 M305.013,310.031l-1.861-5.024l-1.854,5.024H305.013z"/>
		<path fill="#3D3D3C" d="M317.29,302.958v10.251h-1.239v-7.717l-2.97,5.047l-2.992-5.047v7.717h-1.231v-10.251h0.952l3.271,5.548
			l3.257-5.548H317.29z"/>
		<path fill="#3D3D3C" d="M325.135,307.87c1.045,0.563,1.568,1.356,1.568,2.384c0,0.807-0.289,1.503-0.866,2.09
			c-0.583,0.577-1.377,0.866-2.384,0.866h-3.558v-10.251h3.5c0.964,0,1.715,0.271,2.255,0.813c0.539,0.542,0.809,1.197,0.809,1.965
			C326.459,306.605,326.018,307.316,325.135,307.87z M321.126,307.333h2.269c0.563,0,1.008-0.146,1.335-0.437s0.49-0.679,0.49-1.161
			c0-0.505-0.164-0.905-0.49-1.198c-0.327-0.294-0.772-0.44-1.335-0.44h-2.269V307.333z M321.126,312.057h2.326
			c0.621,0,1.112-0.166,1.475-0.498c0.363-0.33,0.544-0.767,0.544-1.306s-0.181-0.972-0.544-1.296
			c-0.363-0.324-0.854-0.486-1.475-0.486h-2.326V312.057z"/>
		<path fill="#3D3D3C" d="M332.093,309.766h-2.14v3.443h-1.231v-10.251h3.042c1.136,0,2.047,0.327,2.734,0.981
			c0.687,0.653,1.031,1.462,1.031,2.427c0,0.964-0.344,1.771-1.031,2.419c-0.325,0.306-0.697,0.539-1.117,0.701l2.505,3.723h-1.489
			L332.093,309.766z M331.764,308.621c0.84,0,1.472-0.216,1.897-0.647c0.424-0.432,0.637-0.968,0.637-1.605
			c0-0.649-0.212-1.189-0.637-1.622c-0.425-0.432-1.057-0.647-1.897-0.647h-1.811v4.523L331.764,308.621L331.764,308.621z"/>
		<path fill="#3D3D3C" d="M338.399,311.206l-0.737,2.004h-1.332l3.93-10.251h0.852l3.937,10.251h-1.332l-0.745-2.004H338.399z
			 M342.543,310.031l-1.861-5.024l-1.854,5.024H342.543z"/>
		<path fill="#3D3D3C" d="M354.863,304.72c-0.727-0.506-1.443-0.759-2.155-0.759c-0.534,0-0.973,0.143-1.317,0.429
			c-0.349,0.277-0.522,0.661-0.522,1.153c0,0.367,0.15,0.678,0.451,0.93c0.306,0.272,0.826,0.532,1.561,0.78
			c0.945,0.335,1.668,0.721,2.169,1.16c0.64,0.559,0.959,1.241,0.959,2.047c0,0.831-0.308,1.527-0.924,2.091
			c-0.615,0.577-1.408,0.866-2.376,0.866c-1.265,0-2.391-0.439-3.378-1.317l0.751-0.901c0.821,0.678,1.697,1.017,2.627,1.017
			c0.616,0,1.114-0.162,1.496-0.486c0.368-0.311,0.551-0.731,0.551-1.268c0-0.448-0.203-0.835-0.608-1.159
			c-0.358-0.271-0.918-0.547-1.682-0.823c-0.821-0.296-1.429-0.597-1.825-0.901c-0.678-0.529-1.017-1.207-1.017-2.032
			c0-0.793,0.293-1.451,0.88-1.977c0.587-0.529,1.322-0.794,2.205-0.794c1.026,0,1.973,0.334,2.842,1.002L354.863,304.72z"/>
		<path fill="#3D3D3C" d="M363.86,302.958v1.139h-2.949v9.112h-1.231v-9.112h-2.957v-1.139H363.86z"/>
		<path fill="#3D3D3C" d="M365.479,311.206l-0.737,2.004h-1.332l3.93-10.251h0.852l3.937,10.251h-1.332l-0.745-2.004H365.479z
			 M369.623,310.031l-1.861-5.024l-1.854,5.024H369.623z"/>
		<path fill="#3D3D3C" d="M378.807,302.958v1.139h-2.949v9.112h-1.231v-9.112h-2.957v-1.139H378.807z"/>
		<path fill="#3D3D3C" d="M386.867,302.958v1.153h-5.34v3.335h4.71v1.146h-4.71v3.45h5.397v1.167h-6.628v-10.251H386.867z"/>
		<path fill="#3D3D3C" d="M393.209,308.091c0,1.193,0.298,2.179,0.895,2.956c0.597,0.778,1.365,1.167,2.305,1.167
			c0.906,0,1.751-0.422,2.534-1.267l0.822,0.759c-0.939,1.141-2.059,1.711-3.356,1.711c-1.293,0-2.359-0.504-3.196-1.511
			s-1.256-2.278-1.256-3.815c0-1.532,0.419-2.801,1.256-3.809c0.837-1.007,1.903-1.51,3.196-1.51c1.298,0,2.417,0.57,3.356,1.711
			l-0.822,0.759c-0.783-0.845-1.627-1.268-2.534-1.268c-0.94,0-1.708,0.39-2.305,1.167
			C393.507,305.92,393.209,306.903,393.209,308.091z"/>
		<path fill="#3D3D3C" d="M408.113,302.958v1.153h-5.34v3.335h4.709v1.146h-4.709v3.45h5.396v1.167h-6.629v-10.251H408.113z"/>
		<path fill="#3D3D3C" d="M417.282,302.958v10.251h-0.944l-4.99-7.767v7.767h-1.229v-10.251h0.951l4.989,7.76v-7.76H417.282z"/>
		<path fill="#3D3D3C" d="M425.908,302.958v1.139h-2.949v9.112h-1.23v-9.112h-2.957v-1.139H425.908z"/>
		<path fill="#3D3D3C" d="M430.77,309.766h-2.141v3.443h-1.232v-10.251h3.044c1.136,0,2.047,0.327,2.733,0.981
			c0.688,0.653,1.031,1.462,1.031,2.427c0,0.964-0.344,1.771-1.031,2.419c-0.324,0.306-0.697,0.539-1.117,0.701l2.506,3.723h-1.488
			L430.77,309.766z M430.439,308.621c0.84,0,1.473-0.216,1.896-0.647c0.425-0.432,0.637-0.968,0.637-1.605
			c0-0.649-0.212-1.189-0.637-1.622c-0.424-0.432-1.057-0.647-1.896-0.647h-1.812v4.523L430.439,308.621L430.439,308.621z"/>
		<path fill="#3D3D3C" d="M437.074,311.206l-0.736,2.004h-1.332l3.93-10.251h0.853l3.938,10.251h-1.332l-0.743-2.004H437.074z
			 M441.219,310.031l-1.86-5.024l-1.854,5.024H441.219z"/>
		<path fill="#3D3D3C" d="M446.295,302.958v9.084h5.225v1.167h-6.457v-10.251H446.295L446.295,302.958z"/>
		<path fill="#3D3D3C" d="M456.709,302.958h1.232v10.251h-1.232V302.958z"/>
		<path fill="#3D3D3C" d="M467.712,302.958v10.251h-0.944l-4.989-7.767v7.767h-1.23v-10.251h0.951l4.99,7.76v-7.76H467.712z"/>
		<path fill="#3D3D3C" d="M471.549,313.209h-1.23v-10.251h6.57v1.153h-5.34v3.873h4.71v1.151h-4.71V313.209L471.549,313.209z"/>
		<path fill="#3D3D3C" d="M482.529,302.773c1.264,0,2.334,0.521,3.207,1.561s1.31,2.293,1.31,3.758c0,1.471-0.437,2.726-1.31,3.767
			c-0.873,1.04-1.943,1.561-3.207,1.561c-1.261,0-2.326-0.521-3.2-1.561c-0.873-1.041-1.311-2.296-1.311-3.767
			c0-1.465,0.438-2.718,1.311-3.758C480.203,303.293,481.27,302.773,482.529,302.773z M479.258,308.091
			c0,1.179,0.309,2.163,0.924,2.953c0.615,0.789,1.4,1.185,2.354,1.185c0.944,0,1.727-0.382,2.345-1.146
			c0.617-0.764,0.927-1.761,0.927-2.992c0-1.222-0.31-2.214-0.927-2.978c-0.618-0.764-1.399-1.146-2.345-1.146
			c-0.95,0-1.733,0.383-2.353,1.148C479.566,305.883,479.258,306.875,479.258,308.091z"/>
		<path fill="#3D3D3C" d="M492.379,309.766h-2.141v3.443h-1.23v-10.251h3.042c1.136,0,2.047,0.327,2.734,0.981
			c0.687,0.653,1.03,1.462,1.03,2.427c0,0.964-0.345,1.771-1.03,2.419c-0.325,0.306-0.696,0.539-1.116,0.701l2.505,3.723h-1.489
			L492.379,309.766z M492.05,308.621c0.84,0,1.472-0.216,1.897-0.647c0.424-0.432,0.637-0.968,0.637-1.605
			c0-0.649-0.213-1.189-0.637-1.622c-0.426-0.432-1.059-0.647-1.897-0.647h-1.812v4.523L492.05,308.621L492.05,308.621z"/>
		<path fill="#3D3D3C" d="M506.309,302.958v10.251h-1.237v-7.717l-2.972,5.047l-2.991-5.047v7.717h-1.23v-10.251h0.951l3.271,5.548
			l3.258-5.548H506.309z"/>
		<path fill="#3D3D3C" d="M509.723,311.206l-0.735,2.004h-1.332l3.93-10.251h0.853l3.938,10.251h-1.332l-0.744-2.004H509.723z
			 M513.867,310.031l-1.861-5.024l-1.854,5.024H513.867z"/>
		<path fill="#3D3D3C" d="M523.052,302.958v1.139h-2.948v9.112h-1.231v-9.112h-2.956v-1.139H523.052z"/>
		<path fill="#3D3D3C" d="M524.541,302.958h1.23v10.251h-1.23V302.958z"/>
		<path fill="#3D3D3C" d="M532.243,302.773c1.265,0,2.333,0.521,3.206,1.561c0.874,1.04,1.311,2.293,1.311,3.758
			c0,1.471-0.437,2.726-1.311,3.767c-0.873,1.04-1.941,1.561-3.206,1.561c-1.261,0-2.327-0.521-3.2-1.561
			c-0.873-1.041-1.31-2.296-1.31-3.767c0-1.465,0.437-2.718,1.31-3.758S530.982,302.773,532.243,302.773z M528.972,308.091
			c0,1.179,0.309,2.163,0.923,2.953c0.616,0.789,1.4,1.185,2.355,1.185c0.945,0,1.727-0.382,2.344-1.146
			c0.619-0.764,0.928-1.761,0.928-2.992c0-1.222-0.309-2.214-0.928-2.978c-0.617-0.764-1.397-1.146-2.344-1.146
			c-0.949,0-1.733,0.383-2.352,1.148C529.281,305.883,528.972,306.875,528.972,308.091z"/>
		<path fill="#3D3D3C" d="M545.887,302.958v10.251h-0.944l-4.988-7.767v7.767h-1.232v-10.251h0.953l4.988,7.76v-7.76H545.887z"/>
		<path fill="#3D3D3C" d="M560.64,302.958v10.251H559.4v-7.717l-2.971,5.047l-2.991-5.047v7.717h-1.231v-10.251h0.952l3.271,5.548
			l3.258-5.548H560.64z"/>
		<path fill="#3D3D3C" d="M564.055,311.206l-0.737,2.004h-1.331l3.93-10.251h0.854l3.937,10.251h-1.331l-0.745-2.004H564.055z
			 M568.199,310.031l-1.861-5.024l-1.854,5.024H568.199z"/>
		<path fill="#3D3D3C" d="M579.208,302.958v10.251h-0.944l-4.989-7.767v7.767h-1.23v-10.251h0.951l4.99,7.76v-7.76H579.208z"/>
		<path fill="#3D3D3C" d="M582.623,311.206l-0.738,2.004h-1.331l3.931-10.251h0.853l3.938,10.251h-1.331l-0.745-2.004H582.623z
			 M586.768,310.031l-1.86-5.024l-1.854,5.024H586.768z"/>
		<path fill="#3D3D3C" d="M596.602,304.957c-0.678-0.664-1.438-0.995-2.282-0.995c-0.939,0-1.716,0.403-2.322,1.209
			c-0.609,0.807-0.913,1.783-0.913,2.928c0,1.142,0.304,2.112,0.913,2.914c0.606,0.803,1.383,1.202,2.322,1.202
			c0.873,0,1.647-0.361,2.325-1.088v-2.369h-2.434v-1.16h3.658v3.98c-1.026,1.227-2.209,1.84-3.551,1.84
			c-1.288,0-2.357-0.515-3.207-1.543c-0.851-1.028-1.273-2.287-1.273-3.776c0-1.492,0.424-2.753,1.273-3.783
			c0.85-1.028,1.919-1.542,3.207-1.542c1.184,0,2.215,0.453,3.093,1.36L596.602,304.957z"/>
		<path fill="#3D3D3C" d="M606.502,302.958v1.153h-5.34v3.335h4.71v1.146h-4.71v3.45h5.396v1.167h-6.628v-10.251H606.502z"/>
		<path fill="#3D3D3C" d="M616.939,302.958v10.251H615.7v-7.717l-2.97,5.047l-2.992-5.047v7.717h-1.232v-10.251h0.953l3.271,5.548
			l3.256-5.548H616.939z"/>
		<path fill="#3D3D3C" d="M626.115,302.958v1.153h-5.34v3.335h4.711v1.146h-4.711v3.45h5.396v1.167h-6.628v-10.251H626.115z"/>
		<path fill="#3D3D3C" d="M635.285,302.958v10.251h-0.945l-4.988-7.767v7.767h-1.231v-10.251h0.953l4.987,7.76v-7.76H635.285z"/>
		<path fill="#3D3D3C" d="M643.91,302.958v1.139h-2.949v9.112h-1.229v-9.112h-2.957v-1.139H643.91z"/>
		<path fill="#3D3D3C" d="M653.875,304.72c-0.726-0.506-1.443-0.759-2.154-0.759c-0.535,0-0.974,0.143-1.316,0.429
			c-0.35,0.277-0.522,0.661-0.522,1.153c0,0.367,0.15,0.678,0.451,0.93c0.305,0.272,0.825,0.532,1.561,0.78
			c0.944,0.335,1.669,0.721,2.169,1.16c0.641,0.559,0.96,1.241,0.96,2.047c0,0.831-0.309,1.527-0.925,2.091
			c-0.614,0.577-1.406,0.866-2.376,0.866c-1.266,0-2.391-0.439-3.379-1.317l0.752-0.901c0.82,0.678,1.696,1.017,2.627,1.017
			c0.615,0,1.113-0.162,1.496-0.486c0.367-0.311,0.552-0.731,0.552-1.268c0-0.448-0.203-0.835-0.608-1.159
			c-0.358-0.271-0.919-0.547-1.683-0.823c-0.82-0.296-1.43-0.597-1.824-0.901c-0.678-0.529-1.019-1.207-1.019-2.032
			c0-0.793,0.294-1.451,0.882-1.977c0.587-0.529,1.321-0.794,2.204-0.794c1.025,0,1.974,0.334,2.843,1.002L653.875,304.72z"/>
		<path fill="#3D3D3C" d="M663.023,302.958l-3.164,6.328v3.923h-1.231v-3.923l-3.164-6.328h1.382l2.412,4.997l2.392-4.997H663.023z"
			/>
		<path fill="#3D3D3C" d="M669,304.72c-0.725-0.506-1.443-0.759-2.154-0.759c-0.533,0-0.973,0.143-1.315,0.429
			c-0.351,0.277-0.523,0.661-0.523,1.153c0,0.367,0.15,0.678,0.451,0.93c0.306,0.272,0.826,0.532,1.561,0.78
			c0.945,0.335,1.669,0.721,2.169,1.16c0.641,0.559,0.961,1.241,0.961,2.047c0,0.831-0.31,1.527-0.925,2.091
			c-0.614,0.577-1.407,0.866-2.377,0.866c-1.265,0-2.391-0.439-3.379-1.317l0.752-0.901c0.82,0.678,1.697,1.017,2.627,1.017
			c0.615,0,1.114-0.162,1.496-0.486c0.367-0.311,0.551-0.731,0.551-1.268c0-0.448-0.201-0.835-0.606-1.159
			c-0.358-0.271-0.919-0.547-1.684-0.823c-0.82-0.296-1.429-0.597-1.824-0.901c-0.679-0.529-1.018-1.207-1.018-2.032
			c0-0.793,0.294-1.451,0.88-1.977c0.589-0.529,1.322-0.794,2.205-0.794c1.026,0,1.974,0.334,2.843,1.002L669,304.72z"/>
		<path fill="#3D3D3C" d="M677.998,302.958v1.139h-2.949v9.112h-1.229v-9.112h-2.957v-1.139H677.998z"/>
		<path fill="#3D3D3C" d="M686.059,302.958v1.153h-5.34v3.335h4.709v1.146h-4.709v3.45h5.396v1.167h-6.629v-10.251H686.059z"/>
		<path fill="#3D3D3C" d="M696.495,302.958v10.251h-1.239v-7.717l-2.97,5.047l-2.992-5.047v7.717h-1.231v-10.251h0.952l3.271,5.548
			l3.257-5.548H696.495z"/>
	</g>
	<g enable-background="new    ">
		<path fill="#00AEEF" d="M338.237,276.557h-27.8l-3.659,10.571h-15.857l27.901-72.777h10.927l27.952,72.777h-15.806
			L338.237,276.557z M333.46,262.785l-9.148-26.479l-9.148,26.479H333.46z"/>
		<path fill="#00AEEF" d="M418.587,214.351v72.777h-12.096L379.86,244.03v43.098h-15.551v-72.777h12.096l26.681,43.046v-43.046
			H418.587L418.587,214.351z"/>
		<path fill="#8DC63F" d="M471.798,250.943c4.913,4.304,7.369,9.352,7.369,15.146c0,6.302-2.337,11.587-7.013,15.856
			c-4.744,4.438-10.793,6.657-18.146,6.657c-8.741,0-17.381-3.591-25.919-10.774l8.386-11.282c6.607,4.98,12.451,7.471,17.533,7.471
			c2.981,0,5.337-0.745,7.064-2.236c1.559-1.287,2.338-2.896,2.338-4.828c0-2.1-0.933-3.896-2.795-5.387
			c-1.83-1.423-5.016-2.965-9.556-4.625c-5.727-2.066-10.046-4.201-12.959-6.403c-5.219-4.134-7.826-9.537-7.826-16.213
			c0-6.03,2.27-11.079,6.81-15.145c4.506-4.1,10.147-6.149,16.924-6.149c7.082,0,14.314,2.677,21.701,8.029l-7.471,11.689
			c-6.134-3.489-10.876-5.234-14.23-5.234c-2.643,0-4.744,0.66-6.302,1.981c-1.39,1.187-2.083,2.644-2.083,4.371
			c0,1.897,0.83,3.524,2.49,4.879c1.523,1.187,4.302,2.508,8.334,3.964C463.191,245.149,468.309,247.894,471.798,250.943z"/>
		<path fill="#8DC63F" d="M500.513,250.841c0,6.606,1.575,12.139,4.728,16.594c3.151,4.455,7.505,6.683,13.062,6.683
			c5.521,0,10.824-2.93,15.907-8.792l10.267,9.046c-7.557,9.487-16.28,14.23-26.174,14.23c-10.131,0-18.187-3.735-24.166-11.206
			s-8.971-16.322-8.971-26.555c0-10.233,2.99-19.092,8.971-26.58c5.979-7.487,14.035-11.231,24.166-11.231
			c9.894,0,18.617,4.744,26.174,14.229l-10.267,9.046c-5.083-5.827-10.386-8.741-15.907-8.741c-5.557,0-9.91,2.22-13.062,6.657
			C502.088,238.662,500.513,244.201,500.513,250.841z"/>
		<path fill="#05A67A" d="M553.673,214.351h15.552v72.777h-15.552V214.351z"/>
		<path fill="#05A67A" d="M645.254,214.351v72.777h-15.551V244.54l-15.35,29.121l-15.449-29.172v42.64h-15.552v-72.777h12.097
			l18.904,33.339l18.805-33.339L645.254,214.351L645.254,214.351z"/>
		<path fill="#05A67A" d="M698.465,250.943c4.912,4.304,7.369,9.352,7.369,15.146c0,6.302-2.338,11.587-7.014,15.856
			c-4.744,4.438-10.791,6.657-18.144,6.657c-8.741,0-17.382-3.591-25.92-10.774l8.386-11.282c6.606,4.98,12.451,7.471,17.534,7.471
			c2.98,0,5.336-0.745,7.064-2.236c1.557-1.287,2.337-2.896,2.337-4.828c0-2.1-0.933-3.896-2.795-5.387
			c-1.829-1.423-5.016-2.965-9.555-4.625c-5.727-2.066-10.047-4.201-12.961-6.403c-5.218-4.134-7.825-9.537-7.825-16.213
			c0-6.03,2.27-11.079,6.811-15.145c4.506-4.1,10.146-6.149,16.924-6.149c7.08,0,14.314,2.677,21.701,8.029l-7.472,11.689
			c-6.133-3.489-10.876-5.234-14.229-5.234c-2.643,0-4.744,0.66-6.303,1.981c-1.39,1.187-2.084,2.644-2.084,4.371
			c0,1.897,0.83,3.524,2.49,4.879c1.524,1.187,4.303,2.508,8.336,3.964C689.858,245.149,694.975,247.894,698.465,250.943z"/>
	</g>
</g>
</svg>
