<svg id="Layer_1" data-name="Layer 1" xmlns="http://www.w3.org/2000/svg" viewBox="0 0 32 26.97"><defs><style>.cls-1{fill:#f9f7f7;}</style></defs><title>qpay</title><path class="cls-1" d="M17.91,26c-2.84-.75-3.93-2-6.37-2.86a4.12,4.12,0,0,0-1.28-.31C5.27,22.61,1,18.92,1,12.15S5.12,1.08,10.8,1.08s9.42,4.43,9.42,10.64c0,5.39-2.5,8.86-6,10.07v.13c2.09.53,1.9.87,3.68,1.18ZM16.56,12.07c0-3.34-1.73-6.77-5.27-6.77s-5.41,3.36-5.39,7S7.83,19,11.19,19,16.56,15.88,16.56,12.07Z"/><path class="cls-1" d="M18.05,5.58a31.24,31.24,0,0,1,5.21-.41c2.69,0,4.65.63,5.9,1.75A5.67,5.67,0,0,1,31,11.32a6.19,6.19,0,0,1-1.62,4.49A8.73,8.73,0,0,1,23,18.12a9.08,9.08,0,0,1-2.18-.19v8.42L16.56,26Z"/></svg>