<svg xmlns="http://www.w3.org/2000/svg" xmlns:xlink="http://www.w3.org/1999/xlink" width="302" height="134" viewBox="0 0 302 134">
  <defs>
    <linearGradient id="linear-gradient" x1="0.5" x2="0.5" y2="1" gradientUnits="objectBoundingBox">
      <stop offset="0" stop-color="#05a67a"/>
      <stop offset="1" stop-color="#1e87f0"/>
    </linearGradient>
    <filter id="Mask" x="-1056.5" y="-36.5" width="391.403" height="223" filterUnits="userSpaceOnUse">
      <feOffset dy="8" input="SourceAlpha"/>
      <feGaussianBlur stdDeviation="15" result="blur"/>
      <feFlood flood-color="#1e87f0" flood-opacity="0.2"/>
      <feComposite operator="in" in2="blur"/>
      <feComposite in="SourceGraphic"/>
    </filter>
    <linearGradient id="linear-gradient-2" x1="0.5" x2="0.5" y2="1" gradientUnits="objectBoundingBox">
      <stop offset="0" stop-color="#40bcf9"/>
      <stop offset="1" stop-color="#1e87f0"/>
    </linearGradient>
    <filter id="Mask-2" x="-716.5" y="-36.5" width="391.403" height="223" filterUnits="userSpaceOnUse">
      <feOffset dy="8" input="SourceAlpha"/>
      <feGaussianBlur stdDeviation="15" result="blur-2"/>
      <feFlood flood-color="#1e87f0" flood-opacity="0.2"/>
      <feComposite operator="in" in2="blur-2"/>
      <feComposite in="SourceGraphic"/>
    </filter>
    <filter id="Mask-3" x="-380.5" y="-36.5" width="391.403" height="223" filterUnits="userSpaceOnUse">
      <feOffset dy="8" input="SourceAlpha"/>
      <feGaussianBlur stdDeviation="15" result="blur-3"/>
      <feFlood flood-color="#1e87f0" flood-opacity="0.2"/>
      <feComposite operator="in" in2="blur-3"/>
      <feComposite in="SourceGraphic"/>
    </filter>
    <filter id="Mask-4" x="-44.5" y="-36.5" width="391.403" height="223" filterUnits="userSpaceOnUse">
      <feOffset dy="8" input="SourceAlpha"/>
      <feGaussianBlur stdDeviation="15" result="blur-4"/>
      <feFlood flood-color="#1e87f0" flood-opacity="0.2"/>
      <feComposite operator="in" in2="blur-4"/>
      <feComposite in="SourceGraphic"/>
    </filter>
    <linearGradient id="linear-gradient-5" x1="0.532" y1="-0.205" x2="0.529" y2="1.611" gradientUnits="objectBoundingBox">
      <stop offset="0" stop-color="#05a67a"/>
      <stop offset="1" stop-color="#8dc63f"/>
    </linearGradient>
    <filter id="Mask-5" x="-1056.5" y="-36.5" width="391.403" height="223" filterUnits="userSpaceOnUse">
      <feOffset dy="8" input="SourceAlpha"/>
      <feGaussianBlur stdDeviation="15" result="blur-5"/>
      <feFlood flood-color="#1e87f0" flood-opacity="0.2"/>
      <feComposite operator="in" in2="blur-5"/>
      <feComposite in="SourceGraphic"/>
    </filter>
    <filter id="Mask-6" x="-1056.5" y="-36.5" width="391.403" height="223" filterUnits="userSpaceOnUse">
      <feOffset dy="8" input="SourceAlpha"/>
      <feGaussianBlur stdDeviation="15" result="blur-6"/>
      <feFlood flood-color="#1e87f0" flood-opacity="0.2"/>
      <feComposite operator="in" in2="blur-6"/>
      <feComposite in="SourceGraphic"/>
    </filter>
    <clipPath id="clip-path">
      <g transform="matrix(1, 0, 0, 1, 0, 0)" filter="url(#Mask)">
        <path id="Mask-7" data-name="Mask" d="M4,0H297.4a4,4,0,0,1,4,4V129a4,4,0,0,1-4,4H4a4,4,0,0,1-4-4V4A4,4,0,0,1,4,0Z" fill="url(#linear-gradient)"/>
      </g>
    </clipPath>
    <filter id="Oval_6_Copy" x="-828.877" y="113.983" width="101.195" height="100.835" filterUnits="userSpaceOnUse">
      <feOffset dy="8" input="SourceAlpha"/>
      <feGaussianBlur stdDeviation="15" result="blur-7"/>
      <feFlood flood-color="#32d296" flood-opacity="0.2"/>
      <feComposite operator="in" in2="blur-7"/>
      <feComposite in="SourceGraphic"/>
    </filter>
    <linearGradient id="linear-gradient-7" x1="0.5" x2="0.5" y2="1" gradientUnits="objectBoundingBox">
      <stop offset="0" stop-color="#05a67a"/>
      <stop offset="1" stop-color="#1e87f0" stop-opacity="0"/>
    </linearGradient>
    <filter id="Oval_6" x="-899.738" y="-20.015" width="347.048" height="344.073" filterUnits="userSpaceOnUse">
      <feOffset dy="8" input="SourceAlpha"/>
      <feGaussianBlur stdDeviation="15" result="blur-8"/>
      <feFlood flood-color="#1e87f0" flood-opacity="0.2"/>
      <feComposite operator="in" in2="blur-8"/>
      <feComposite in="SourceGraphic"/>
    </filter>
    <linearGradient id="linear-gradient-8" x1="0.5" y1="0" x2="0.5" y2="1" xlink:href="#linear-gradient-5"/>
    <filter id="Oval_6_Copy_3" x="-1070.465" y="-169.801" width="347.552" height="344.905" filterUnits="userSpaceOnUse">
      <feOffset dy="8" input="SourceAlpha"/>
      <feGaussianBlur stdDeviation="15" result="blur-9"/>
      <feFlood flood-color="#1e87f0" flood-opacity="0.2"/>
      <feComposite operator="in" in2="blur-9"/>
      <feComposite in="SourceGraphic"/>
    </filter>
    <linearGradient id="linear-gradient-9" x1="1.02" y1="0.778" x2="-0.272" y2="0.177" gradientUnits="objectBoundingBox">
      <stop offset="0" stop-color="#f9d423"/>
      <stop offset="1" stop-color="#f83600"/>
    </linearGradient>
    <filter id="Mask-8" x="-716.5" y="-36.5" width="391.403" height="223" filterUnits="userSpaceOnUse">
      <feOffset dy="8" input="SourceAlpha"/>
      <feGaussianBlur stdDeviation="15" result="blur-10"/>
      <feFlood flood-color="#1e87f0" flood-opacity="0.2"/>
      <feComposite operator="in" in2="blur-10"/>
      <feComposite in="SourceGraphic"/>
    </filter>
    <clipPath id="clip-path-2">
      <g transform="matrix(1, 0, 0, 1, 0, 0)" filter="url(#Mask-2)">
        <rect id="Mask-9" data-name="Mask" width="301.403" height="133" rx="4" fill="url(#linear-gradient-2)"/>
      </g>
    </clipPath>
    <filter id="Oval_6_Copy-2" x="-488.877" y="113.983" width="101.195" height="100.835" filterUnits="userSpaceOnUse">
      <feOffset dy="8" input="SourceAlpha"/>
      <feGaussianBlur stdDeviation="15" result="blur-11"/>
      <feFlood flood-color="#32d296" flood-opacity="0.2"/>
      <feComposite operator="in" in2="blur-11"/>
      <feComposite in="SourceGraphic"/>
    </filter>
    <linearGradient id="linear-gradient-10" x1="0.5" x2="0.5" y2="1" gradientUnits="objectBoundingBox">
      <stop offset="0" stop-color="#f83600"/>
      <stop offset="1" stop-color="#f9d423"/>
    </linearGradient>
    <filter id="Oval_6-2" x="-559.738" y="-20.015" width="347.048" height="344.073" filterUnits="userSpaceOnUse">
      <feOffset dy="8" input="SourceAlpha"/>
      <feGaussianBlur stdDeviation="15" result="blur-12"/>
      <feFlood flood-color="#1e87f0" flood-opacity="0.2"/>
      <feComposite operator="in" in2="blur-12"/>
      <feComposite in="SourceGraphic"/>
    </filter>
    <linearGradient id="linear-gradient-11" x1="0.098" y1="-0.146" x2="0.488" y2="0.939" gradientUnits="objectBoundingBox">
      <stop offset="0" stop-color="#f83600"/>
      <stop offset="1" stop-color="#f9d423" stop-opacity="0.349"/>
    </linearGradient>
    <linearGradient id="linear-gradient-12" x1="0.52" y1="-0.365" x2="0.456" y2="2.059" gradientUnits="objectBoundingBox">
      <stop offset="0" stop-color="#2af598"/>
      <stop offset="1" stop-color="#009efd"/>
    </linearGradient>
    <filter id="Mask-10" x="-380.5" y="-36.5" width="391.403" height="223" filterUnits="userSpaceOnUse">
      <feOffset dy="8" input="SourceAlpha"/>
      <feGaussianBlur stdDeviation="15" result="blur-13"/>
      <feFlood flood-color="#1e87f0" flood-opacity="0.2"/>
      <feComposite operator="in" in2="blur-13"/>
      <feComposite in="SourceGraphic"/>
    </filter>
    <filter id="Oval_6_Copy-3" x="-152.877" y="113.983" width="101.195" height="100.835" filterUnits="userSpaceOnUse">
      <feOffset dy="8" input="SourceAlpha"/>
      <feGaussianBlur stdDeviation="15" result="blur-14"/>
      <feFlood flood-color="#32d296" flood-opacity="0.2"/>
      <feComposite operator="in" in2="blur-14"/>
      <feComposite in="SourceGraphic"/>
    </filter>
    <linearGradient id="linear-gradient-13" x1="0.5" x2="0.5" y2="1" gradientUnits="objectBoundingBox">
      <stop offset="0" stop-color="#2af598"/>
      <stop offset="1" stop-color="#1e87f0" stop-opacity="0"/>
    </linearGradient>
    <filter id="Oval_6-3" x="-223.738" y="-20.015" width="347.048" height="344.073" filterUnits="userSpaceOnUse">
      <feOffset dy="8" input="SourceAlpha"/>
      <feGaussianBlur stdDeviation="15" result="blur-15"/>
      <feFlood flood-color="#1e87f0" flood-opacity="0.2"/>
      <feComposite operator="in" in2="blur-15"/>
      <feComposite in="SourceGraphic"/>
    </filter>
    <linearGradient id="linear-gradient-14" x1="0.5" x2="0.5" y2="1" gradientUnits="objectBoundingBox">
      <stop offset="0" stop-color="#009efd"/>
      <stop offset="1" stop-color="#2af598" stop-opacity="0.439"/>
    </linearGradient>
    <filter id="Mask-12" x="-44.5" y="-36.5" width="391.403" height="223" filterUnits="userSpaceOnUse">
      <feOffset dy="8" input="SourceAlpha"/>
      <feGaussianBlur stdDeviation="15" result="blur-16"/>
      <feFlood flood-color="#1e87f0" flood-opacity="0.2"/>
      <feComposite operator="in" in2="blur-16"/>
      <feComposite in="SourceGraphic"/>
    </filter>
    <clipPath id="clip-path-4">
      <g transform="matrix(1, 0, 0, 1, 0, 0)" filter="url(#Mask-4)">
        <rect id="Mask-13" data-name="Mask" width="301.403" height="133" fill="url(#linear-gradient-2)"/>
      </g>
    </clipPath>
    <filter id="Oval_6_Copy-4" x="183.123" y="113.983" width="101.195" height="100.835" filterUnits="userSpaceOnUse">
      <feOffset dy="8" input="SourceAlpha"/>
      <feGaussianBlur stdDeviation="15" result="blur-17"/>
      <feFlood flood-color="#32d296" flood-opacity="0.2"/>
      <feComposite operator="in" in2="blur-17"/>
      <feComposite in="SourceGraphic"/>
    </filter>
    <linearGradient id="linear-gradient-16" x1="0.5" x2="0.5" y2="1" gradientUnits="objectBoundingBox">
      <stop offset="0" stop-color="#40bcf9"/>
      <stop offset="1" stop-color="#1e87f0" stop-opacity="0"/>
    </linearGradient>
    <filter id="Oval_6-4" x="112.262" y="-20.015" width="347.048" height="344.073" filterUnits="userSpaceOnUse">
      <feOffset dy="8" input="SourceAlpha"/>
      <feGaussianBlur stdDeviation="15" result="blur-18"/>
      <feFlood flood-color="#1e87f0" flood-opacity="0.2"/>
      <feComposite operator="in" in2="blur-18"/>
      <feComposite in="SourceGraphic"/>
    </filter>
    <filter id="Oval_6_Copy_3-2" x="30.787" y="-98.385" width="347.048" height="344.073" filterUnits="userSpaceOnUse">
      <feOffset dy="8" input="SourceAlpha"/>
      <feGaussianBlur stdDeviation="15" result="blur-19"/>
      <feFlood flood-color="#1e87f0" flood-opacity="0.2"/>
      <feComposite operator="in" in2="blur-19"/>
      <feComposite in="SourceGraphic"/>
    </filter>
    <clipPath id="clip-Artboard_4">
      <rect width="302" height="134"/>
    </clipPath>
  </defs>
  <g id="Artboard_4" data-name="Artboard – 4" clip-path="url(#clip-Artboard_4)">
    <rect width="302" height="134" fill="#fff"/>
    <g id="Group_335" data-name="Group 335" transform="translate(-1037 -33)">
      <g id="Group_334" data-name="Group 334" transform="translate(-18 21)">
        <g id="Card_1" data-name="Card 1" transform="translate(43.5 12.5)">
          <g id="Triangle_Pattern" data-name="Triangle Pattern">
            <g transform="matrix(1, 0, 0, 1, 1011.5, -0.5)" filter="url(#Mask-5)">
              <rect id="Mask-14" data-name="Mask" width="301.403" height="133" transform="translate(-1011.5 0.5)" fill="url(#linear-gradient-5)"/>
            </g>
            <g transform="matrix(1, 0, 0, 1, 1011.5, -0.5)" filter="url(#Mask-6)">
              <rect id="Mask-15" data-name="Mask" width="301.403" height="133" transform="translate(-1011.5 0.5)" fill="url(#linear-gradient-5)"/>
            </g>
            <g id="Mask_Group_3" data-name="Mask Group 3" clip-path="url(#clip-path)">
              <g id="Triangle_Pattern-2" data-name="Triangle Pattern" transform="translate(27.622 -12.718) rotate(-11)">
                <g transform="matrix(0.98, 0.19, -0.19, 0.98, 963.47, 199.73)" filter="url(#Oval_6_Copy)">
                  <ellipse id="Oval_6_Copy-5" data-name="Oval 6 Copy" cx="4.811" cy="4.584" rx="4.811" ry="4.584" transform="translate(-783.88 152.82) rotate(-11)" fill="#32d296"/>
                </g>
                <g transform="matrix(0.98, 0.19, -0.19, 0.98, 963.47, 199.73)" filter="url(#Oval_6)">
                  <path id="Oval_6-5" data-name="Oval 6" d="M106.377,21.22C158.435,26.97,205.3,70.8,211.05,119.126s-31.789,82.831-83.847,77.08S28.281,146.621,22.53,98.3,54.319,15.469,106.377,21.22Z" transform="matrix(0.81, -0.59, 0.59, 0.81, -884.6, 124.72)" fill="url(#linear-gradient-7)"/>
                </g>
                <g transform="matrix(0.98, 0.19, -0.19, 0.98, 963.47, 199.73)" filter="url(#Oval_6_Copy_3)">
                  <path id="Oval_6_Copy_3-3" data-name="Oval 6 Copy 3" d="M106.377,21.22C158.435,26.97,205.3,70.8,211.05,119.126s-31.789,82.831-83.847,77.08S28.281,146.621,22.53,98.3,54.319,15.469,106.377,21.22Z" transform="translate(-737.99 11.19) rotate(143)" fill="url(#linear-gradient-8)"/>
                </g>
              </g>
            </g>
          </g>
          <g id="Triangle_Pattern-3" data-name="Triangle Pattern" transform="translate(340)">
            <g transform="matrix(1, 0, 0, 1, 671.5, -0.5)" filter="url(#Mask-8)">
              <rect id="Mask-16" data-name="Mask" width="301.403" height="133" transform="translate(-671.5 0.5)" fill="url(#linear-gradient-9)"/>
            </g>
            <g id="Triangle_Pattern-4" data-name="Triangle Pattern" clip-path="url(#clip-path-2)">
              <g id="Triangle_Pattern-5" data-name="Triangle Pattern" transform="translate(27.622 -12.718) rotate(-11)">
                <g transform="matrix(0.98, 0.19, -0.19, 0.98, 629.72, 134.85)" filter="url(#Oval_6_Copy-2)">
                  <ellipse id="Oval_6_Copy-6" data-name="Oval 6 Copy" cx="4.811" cy="4.584" rx="4.811" ry="4.584" transform="translate(-443.88 152.82) rotate(-11)" fill="#32d296"/>
                </g>
                <g transform="matrix(0.98, 0.19, -0.19, 0.98, 629.72, 134.85)" filter="url(#Oval_6-2)">
                  <path id="Oval_6-6" data-name="Oval 6" d="M106.377,21.22C158.435,26.97,205.3,70.8,211.05,119.126s-31.789,82.831-83.847,77.08S28.281,146.621,22.53,98.3,54.319,15.469,106.377,21.22Z" transform="matrix(0.81, -0.59, 0.59, 0.81, -544.6, 124.72)" opacity="0.31" fill="url(#linear-gradient-10)"/>
                </g>
                <path id="Oval_6_Copy_3-4" data-name="Oval 6 Copy 3" d="M106.377,21.22C158.435,26.97,205.3,70.8,211.05,119.126s-31.789,82.831-83.847,77.08S28.281,146.621,22.53,98.3,54.319,15.469,106.377,21.22Z" transform="translate(-64.516 -15.02) rotate(-25)" fill="url(#linear-gradient-11)"/>
              </g>
            </g>
          </g>
          <g id="Triangle_Pattern-6" data-name="Triangle Pattern" transform="translate(676)">
            <g transform="matrix(1, 0, 0, 1, 335.5, -0.5)" filter="url(#Mask-10)">
              <rect id="Mask-17" data-name="Mask" width="301.403" height="133" transform="translate(-335.5 0.5)" fill="url(#linear-gradient-12)"/>
            </g>
            <g id="Triangle_Pattern-7" data-name="Triangle Pattern" clip-path="url(#clip-path-2)">
              <g id="Triangle_Pattern-8" data-name="Triangle Pattern" transform="translate(27.622 -12.718) rotate(-11)">
                <g transform="matrix(0.98, 0.19, -0.19, 0.98, 299.89, 70.74)" filter="url(#Oval_6_Copy-3)">
                  <ellipse id="Oval_6_Copy-7" data-name="Oval 6 Copy" cx="4.811" cy="4.584" rx="4.811" ry="4.584" transform="translate(-107.88 152.82) rotate(-11)" fill="#32d296"/>
                </g>
                <g transform="matrix(0.98, 0.19, -0.19, 0.98, 299.89, 70.74)" filter="url(#Oval_6-3)">
                  <path id="Oval_6-7" data-name="Oval 6" d="M106.377,21.22C158.435,26.97,205.3,70.8,211.05,119.126s-31.789,82.831-83.847,77.08S28.281,146.621,22.53,98.3,54.319,15.469,106.377,21.22Z" transform="matrix(0.81, -0.59, 0.59, 0.81, -208.6, 124.72)" fill="url(#linear-gradient-13)"/>
                </g>
                <path id="Oval_6_Copy_3-5" data-name="Oval 6 Copy 3" d="M106.377,21.22C158.435,26.97,205.3,70.8,211.05,119.126s-31.789,82.831-83.847,77.08S28.281,146.621,22.53,98.3,54.319,15.469,106.377,21.22Z" transform="translate(-65.116 -17.174) rotate(-25)" fill="url(#linear-gradient-14)"/>
              </g>
            </g>
          </g>
          <g id="Triangle_Pattern-9" data-name="Triangle Pattern" transform="translate(1012)">
            <g transform="matrix(1, 0, 0, 1, -0.5, -0.5)" filter="url(#Mask-12)">
              <rect id="Mask-18" data-name="Mask" width="301.403" height="133" transform="translate(0.5 0.5)" fill="url(#linear-gradient-2)"/>
            </g>
            <g id="Triangle_Pattern-10" data-name="Triangle Pattern" clip-path="url(#clip-path-4)">
              <g id="Triangle_Pattern-11" data-name="Triangle Pattern" transform="translate(27.622 -12.718) rotate(-11)">
                <g transform="matrix(0.98, 0.19, -0.19, 0.98, -29.94, 6.63)" filter="url(#Oval_6_Copy-4)">
                  <ellipse id="Oval_6_Copy-8" data-name="Oval 6 Copy" cx="4.811" cy="4.584" rx="4.811" ry="4.584" transform="translate(228.12 152.82) rotate(-11)" fill="#32d296"/>
                </g>
                <g transform="matrix(0.98, 0.19, -0.19, 0.98, -29.94, 6.63)" filter="url(#Oval_6-4)">
                  <path id="Oval_6-8" data-name="Oval 6" d="M106.377,21.22C158.435,26.97,205.3,70.8,211.05,119.126s-31.789,82.831-83.847,77.08S28.281,146.621,22.53,98.3,54.319,15.469,106.377,21.22Z" transform="matrix(0.81, -0.59, 0.59, 0.81, 127.4, 124.72)" fill="url(#linear-gradient-16)"/>
                </g>
                <g transform="matrix(0.98, 0.19, -0.19, 0.98, -29.94, 6.63)" filter="url(#Oval_6_Copy_3-2)">
                  <path id="Oval_6_Copy_3-6" data-name="Oval 6 Copy 3" d="M106.377,21.22C158.435,26.97,205.3,70.8,211.05,119.126s-31.789,82.831-83.847,77.08S28.281,146.621,22.53,98.3,54.319,15.469,106.377,21.22Z" transform="matrix(0.81, -0.59, 0.59, 0.81, 45.93, 46.35)" fill="url(#linear-gradient-16)"/>
                </g>
              </g>
            </g>
          </g>
        </g>
        <g id="worldwide" transform="translate(215 50.95)" opacity="0.15">
          <g id="Group_302" data-name="Group 302" transform="translate(0 0.05)">
            <path id="Path_409" data-name="Path 409" d="M50.618.05A50.589,50.589,0,0,0,4.1,30.728l-.631.209.245.734A50.586,50.586,0,1,0,50.618.05ZM90.3,76.146l-2.6-2.6V67.5a1.684,1.684,0,0,0-.169-.754L80.957,53.614V47.267a1.686,1.686,0,0,0-.75-1.4l-5.059-3.373a1.687,1.687,0,0,0-1.349-.233l-6.2,1.548L57.2,39.341l-1.432-10.03,3.968-3.966H68.25l2.867,4.309a1.686,1.686,0,0,0,1.126.727l10.118,1.686A1.672,1.672,0,0,0,83.171,32L92.49,28.9A47.048,47.048,0,0,1,90.3,76.146ZM83.345,16.667,80.6,18.495l-7.644-1.529L68,15.315a1.656,1.656,0,0,0-.941-.037l-6.27,1.567-2.749-.916,2.037-4.074h5.7a1.686,1.686,0,0,0,.754-.177L72.368,8.76A47.39,47.39,0,0,1,83.345,16.667ZM32.133,7.188l4.047,2.7a1.684,1.684,0,0,0,.659.26l8.172,1.363-.8,2.386-4.258,1.422a1.686,1.686,0,0,0-.912.73L34.2,24.117l-7.779,4.668L14.954,30.422A1.686,1.686,0,0,0,13.5,32.09v5.059A1.686,1.686,0,0,0,14,38.341l2.879,2.879v2.9L9.862,39.439,7.317,31.805A47.489,47.489,0,0,1,32.133,7.188Zm-4.8,55.289L19.71,60.951,16.877,55.3V51.338l6.283-6.283,2.325,4.653a1.687,1.687,0,0,0,1.509.933h10.85l4.568,7.614a1.686,1.686,0,0,0,1.445.818h4.688l-1.18,5.914-6.384,6.384a1.687,1.687,0,0,0-.5,1.192v4.216l-6.071,4.553a1.687,1.687,0,0,0-.675,1.349v6.091l-2.1-.695L28.681,80.67V64.13A1.686,1.686,0,0,0,27.332,62.478ZM22.263,88.4A47.2,47.2,0,0,1,5.445,36.852l1.4,4.2a1.685,1.685,0,0,0,.663.87l8.406,5.6L14,49.447A1.686,1.686,0,0,0,13.5,50.64V55.7a1.686,1.686,0,0,0,.177.754L17.054,63.2a1.687,1.687,0,0,0,1.18.9l7.083,1.415V80.993a1.687,1.687,0,0,0,.12.626l3.373,8.432a1.687,1.687,0,0,0,1.034.973L34.9,92.71a1.657,1.657,0,0,0,.524.088,1.686,1.686,0,0,0,1.686-1.686V83.523l6.071-4.553a1.687,1.687,0,0,0,.675-1.349V73.26l6.251-6.251a1.688,1.688,0,0,0,.46-.862l1.686-8.432A1.686,1.686,0,0,0,50.6,55.7H44.812l-4.568-7.614a1.686,1.686,0,0,0-1.445-.818H28.037l-2.9-5.813a1.686,1.686,0,0,0-1.239-.911,1.653,1.653,0,0,0-1.462.472L20.249,43.2V40.522a1.686,1.686,0,0,0-.494-1.192l-2.879-2.879v-2.9l10.357-1.479a1.694,1.694,0,0,0,.629-.224l8.432-5.059a1.685,1.685,0,0,0,.577-.577l4.739-7.9,4.467-1.491a1.669,1.669,0,0,0,1.066-1.066L48.829,10.7a1.687,1.687,0,0,0-1.322-2.192l-9.76-1.627L36.032,5.738A47.087,47.087,0,0,1,68.463,6.944L65.382,8.482H59.035a1.686,1.686,0,0,0-1.518.933l-3.373,6.745a1.687,1.687,0,0,0,.976,2.352L60.18,20.2a1.656,1.656,0,0,0,.941.037l6.27-1.567L71.984,20.2a1.239,1.239,0,0,0,.2.054l8.432,1.686a1.674,1.674,0,0,0,1.266-.25l3.838-2.56a47.573,47.573,0,0,1,5.072,6.777l-8.3,2.766-8.983-1.5-2.968-4.452a1.686,1.686,0,0,0-1.395-.75H59.035a1.686,1.686,0,0,0-1.192.494l-5.059,5.059a1.686,1.686,0,0,0-.477,1.432l1.686,11.8A1.686,1.686,0,0,0,55,42.071l11.8,5.059a1.667,1.667,0,0,0,1.073.086L73.9,45.71l3.681,2.459v5.843a1.684,1.684,0,0,0,.169.754L84.329,67.9v6.347a1.686,1.686,0,0,0,.494,1.192l3.528,3.529A47.2,47.2,0,0,1,22.263,88.4Z" transform="translate(0 -0.05)" fill="#fff"/>
          </g>
        </g>
      </g>
      <g id="single-03" transform="translate(571.5 74.5)" opacity="0.26">
        <path id="Shape" d="M57.418,0A28.035,28.035,0,0,1,37.5,8.292,28.035,28.035,0,0,1,17.577,0,37.428,37.428,0,0,0,0,31.727v4.687H74.995V31.727A37.428,37.428,0,0,0,57.418,0Z" transform="translate(0 38.58)" fill="#fff"/>
        <circle id="Oval" cx="18.749" cy="18.749" r="18.749" transform="translate(18.749)" fill="#fff"/>
      </g>
      <g id="company" transform="translate(903 83)" opacity="0.53">
        <g id="Group_304" data-name="Group 304" transform="translate(4.966 18.624)">
          <g id="Group_303" data-name="Group 303">
            <path id="Path_410" data-name="Path 410" d="M38.209,120H33.242A1.241,1.241,0,0,0,32,121.241h0v4.966a1.241,1.241,0,0,0,1.241,1.242h4.967a1.241,1.241,0,0,0,1.242-1.241h0v-4.966A1.241,1.241,0,0,0,38.209,120Zm-1.242,4.966H34.483v-2.483h2.483Z" transform="translate(-32 -120)" fill="#fff"/>
          </g>
        </g>
        <g id="Group_306" data-name="Group 306" transform="translate(19.865 18.624)">
          <g id="Group_305" data-name="Group 305">
            <path id="Path_411" data-name="Path 411" d="M134.209,120h-4.967A1.241,1.241,0,0,0,128,121.241h0v4.966a1.241,1.241,0,0,0,1.241,1.242h4.967a1.241,1.241,0,0,0,1.242-1.241h0v-4.966A1.241,1.241,0,0,0,134.209,120Zm-1.242,4.966h-2.483v-2.483h2.483Z" transform="translate(-128 -120)" fill="#fff"/>
          </g>
        </g>
        <g id="Group_308" data-name="Group 308" transform="translate(34.764 18.624)">
          <g id="Group_307" data-name="Group 307">
            <path id="Path_412" data-name="Path 412" d="M230.209,120h-4.967A1.241,1.241,0,0,0,224,121.241h0v4.966a1.241,1.241,0,0,0,1.241,1.242h4.967a1.241,1.241,0,0,0,1.242-1.241h0v-4.966A1.241,1.241,0,0,0,230.209,120Zm-1.242,4.966h-2.483v-2.483h2.483Z" transform="translate(-224 -120)" fill="#fff"/>
          </g>
        </g>
        <g id="Group_310" data-name="Group 310" transform="translate(4.966 32.281)">
          <g id="Group_309" data-name="Group 309">
            <path id="Path_413" data-name="Path 413" d="M38.209,208H33.242A1.241,1.241,0,0,0,32,209.241h0v4.966a1.241,1.241,0,0,0,1.241,1.242h4.967a1.241,1.241,0,0,0,1.242-1.241h0v-4.966A1.241,1.241,0,0,0,38.209,208Zm-1.242,4.966H34.483v-2.483h2.483Z" transform="translate(-32 -208)" fill="#fff"/>
          </g>
        </g>
        <g id="Group_312" data-name="Group 312" transform="translate(19.865 32.281)">
          <g id="Group_311" data-name="Group 311">
            <path id="Path_414" data-name="Path 414" d="M134.209,208h-4.967A1.241,1.241,0,0,0,128,209.241h0v4.966a1.241,1.241,0,0,0,1.241,1.242h4.967a1.241,1.241,0,0,0,1.242-1.241h0v-4.966A1.241,1.241,0,0,0,134.209,208Zm-1.242,4.966h-2.483v-2.483h2.483Z" transform="translate(-128 -208)" fill="#fff"/>
          </g>
        </g>
        <g id="Group_314" data-name="Group 314" transform="translate(34.764 32.281)">
          <g id="Group_313" data-name="Group 313">
            <path id="Path_415" data-name="Path 415" d="M230.209,208h-4.967A1.241,1.241,0,0,0,224,209.241h0v4.966a1.241,1.241,0,0,0,1.241,1.242h4.967a1.241,1.241,0,0,0,1.242-1.241h0v-4.966A1.241,1.241,0,0,0,230.209,208Zm-1.242,4.966h-2.483v-2.483h2.483Z" transform="translate(-224 -208)" fill="#fff"/>
          </g>
        </g>
        <g id="Group_316" data-name="Group 316" transform="translate(4.966 45.938)">
          <g id="Group_315" data-name="Group 315">
            <path id="Path_416" data-name="Path 416" d="M38.209,296H33.242A1.241,1.241,0,0,0,32,297.241h0v4.966a1.241,1.241,0,0,0,1.241,1.242h4.967a1.241,1.241,0,0,0,1.242-1.241h0v-4.966A1.241,1.241,0,0,0,38.209,296Zm-1.242,4.966H34.483v-2.483h2.483Z" transform="translate(-32 -296)" fill="#fff"/>
          </g>
        </g>
        <g id="Group_318" data-name="Group 318" transform="translate(19.865 45.938)">
          <g id="Group_317" data-name="Group 317">
            <path id="Path_417" data-name="Path 417" d="M134.209,296h-4.967A1.241,1.241,0,0,0,128,297.241h0v4.966a1.241,1.241,0,0,0,1.241,1.242h4.967a1.241,1.241,0,0,0,1.242-1.241h0v-4.966A1.241,1.241,0,0,0,134.209,296Zm-1.242,4.966h-2.483v-2.483h2.483Z" transform="translate(-128 -296)" fill="#fff"/>
          </g>
        </g>
        <g id="Group_320" data-name="Group 320" transform="translate(34.764 45.938)">
          <g id="Group_319" data-name="Group 319">
            <path id="Path_418" data-name="Path 418" d="M230.209,296h-4.967A1.241,1.241,0,0,0,224,297.241h0v4.966a1.241,1.241,0,0,0,1.241,1.242h4.967a1.241,1.241,0,0,0,1.242-1.241h0v-4.966A1.241,1.241,0,0,0,230.209,296Zm-1.242,4.966h-2.483v-2.483h2.483Z" transform="translate(-224 -296)" fill="#fff"/>
          </g>
        </g>
        <g id="Group_322" data-name="Group 322" transform="translate(4.966 59.596)">
          <g id="Group_321" data-name="Group 321">
            <path id="Path_419" data-name="Path 419" d="M38.209,384H33.242A1.241,1.241,0,0,0,32,385.241h0v4.966a1.241,1.241,0,0,0,1.241,1.242h4.967a1.241,1.241,0,0,0,1.242-1.241h0v-4.966A1.241,1.241,0,0,0,38.209,384Zm-1.242,4.966H34.483v-2.483h2.483Z" transform="translate(-32 -384)" fill="#fff"/>
          </g>
        </g>
        <g id="Group_324" data-name="Group 324" transform="translate(34.764 59.596)">
          <g id="Group_323" data-name="Group 323">
            <path id="Path_420" data-name="Path 420" d="M230.209,384h-4.967A1.241,1.241,0,0,0,224,385.241h0v4.966a1.241,1.241,0,0,0,1.241,1.242h4.967a1.241,1.241,0,0,0,1.242-1.241h0v-4.966A1.241,1.241,0,0,0,230.209,384Zm-1.242,4.966h-2.483v-2.483h2.483Z" transform="translate(-224 -384)" fill="#fff"/>
          </g>
        </g>
        <g id="Group_326" data-name="Group 326" transform="translate(0 0)">
          <g id="Group_325" data-name="Group 325" transform="translate(0)">
            <path id="Path_421" data-name="Path 421" d="M73.254,31.039H60.837V24.824A8.417,8.417,0,0,0,64.5,25.895c.13.007.261.01.39.01a7.743,7.743,0,0,0,5.516-2.325,1.241,1.241,0,0,0,0-1.755h0l-4.265-4.265,3.023-3.023L67.409,12.78,64.386,15.8l-4.265-4.265a1.278,1.278,0,0,0-1.756,0,8.037,8.037,0,0,0-.011,11.291v8.211H47.18V14.9a1.241,1.241,0,0,0-1.241-1.242H44.7V9.933a1.241,1.241,0,0,0-1.241-1.242H39.731V1.242A1.241,1.241,0,0,0,38.49,0H8.691A1.241,1.241,0,0,0,7.449,1.241h0V8.691H3.725A1.241,1.241,0,0,0,2.483,9.932h0v3.725H1.242A1.241,1.241,0,0,0,0,14.9H0V73.253a1.241,1.241,0,0,0,1.241,1.242H73.253a1.241,1.241,0,0,0,1.242-1.241h0V32.281A1.241,1.241,0,0,0,73.254,31.039ZM9.933,2.483H37.247V8.691H9.933ZM4.966,11.174H42.214v2.483H4.966ZM22.348,72.012H17.382v-8.93a2.246,2.246,0,0,1,2.244-2.244h2.723Zm7.449,0H24.832V60.837h2.723A2.246,2.246,0,0,1,29.8,63.082Zm14.9,0H32.281v-8.93a4.733,4.733,0,0,0-4.727-4.727H19.626A4.733,4.733,0,0,0,14.9,63.082v8.93H2.483V16.141H44.7ZM59.338,14.266l8.342,8.343a5.091,5.091,0,0,1-3.056.806,6.372,6.372,0,0,1-4.15-1.945A5.705,5.705,0,0,1,59.338,14.266ZM63.32,72.012H55.871V65.291a1.973,1.973,0,0,1,1.971-1.97H61.35a1.973,1.973,0,0,1,1.971,1.97Zm8.691,0H65.8V65.291a4.459,4.459,0,0,0-4.454-4.453H57.842a4.459,4.459,0,0,0-4.454,4.453v6.721H47.18V33.523H72.012Z" transform="translate(0 0)" fill="#fff"/>
          </g>
        </g>
        <g id="Group_328" data-name="Group 328" transform="translate(54.629 36.006)">
          <g id="Group_327" data-name="Group 327">
            <path id="Path_422" data-name="Path 422" d="M360.692,232h-7.45A1.241,1.241,0,0,0,352,233.241h0v7.449a1.241,1.241,0,0,0,1.241,1.242h7.45a1.241,1.241,0,0,0,1.242-1.241h0v-7.449A1.241,1.241,0,0,0,360.692,232Zm-1.242,7.449h-4.966v-4.966h4.966Z" transform="translate(-352 -232)" fill="#fff"/>
          </g>
        </g>
        <g id="Group_330" data-name="Group 330" transform="translate(54.629 48.422)">
          <g id="Group_329" data-name="Group 329">
            <path id="Path_423" data-name="Path 423" d="M360.692,312h-7.45A1.241,1.241,0,0,0,352,313.241h0v7.449a1.241,1.241,0,0,0,1.241,1.242h7.45a1.241,1.241,0,0,0,1.242-1.241h0v-7.449A1.241,1.241,0,0,0,360.692,312Zm-1.242,7.449h-4.966v-4.966h4.966Z" transform="translate(-352 -312)" fill="#fff"/>
          </g>
        </g>
      </g>
      <g id="new-user" transform="translate(1205.879 89.166)" opacity="0.25">
        <g id="Group_331" data-name="Group 331" transform="translate(36.121)">
          <path id="Path_424" data-name="Path 424" d="M158.008,37.93c10.537,0,14.329-10.551,15.322-19.218C174.552,8.035,169.5,0,158.008,0s-16.545,8.035-15.322,18.712C143.68,27.379,147.47,37.931,158.008,37.93Z" transform="translate(-129.499)" fill="#fff"/>
          <path id="Path_425" data-name="Path 425" d="M87.672,302.13q.509,0,1.01.029a8.054,8.054,0,0,0-1.761-1.854c-2.025-1.511-4.647-2.007-6.965-2.918A30.146,30.146,0,0,1,76.868,296a16.675,16.675,0,0,1-24.475,0,30.143,30.143,0,0,1-3.088,1.385c-2.318.911-4.94,1.407-6.965,2.918-3.5,2.614-4.407,8.493-5.118,12.5a71.9,71.9,0,0,0-1.1,10.052c-.089,2.6,1.2,2.97,3.376,3.757a63.1,63.1,0,0,0,8.382,2.314,84.493,84.493,0,0,0,16.746,2.085,67.341,67.341,0,0,0,8.167-.591,18.053,18.053,0,0,1,14.874-28.3Z" transform="translate(-36.121 -259.808)" fill="#fff"/>
          <path id="Path_426" data-name="Path 426" d="M353.986,375.658a14.45,14.45,0,1,0,14.45,14.45A14.45,14.45,0,0,0,353.986,375.658Zm6.322,16.929h-3.843v3.842a2.479,2.479,0,1,1-4.958,0v-3.842h-3.842a2.479,2.479,0,0,1,0-4.959h3.842v-3.842a2.479,2.479,0,1,1,4.958,0v3.842h3.843a2.479,2.479,0,0,1,0,4.959Z" transform="translate(-302.435 -329.723)" fill="#fff"/>
        </g>
      </g>
    </g>
  </g>
</svg>
