<?xml version="1.0" encoding="utf-8"?>
<!-- Generator: Adobe Illustrator 16.0.0, SVG Export Plug-In . SVG Version: 6.00 Build 0)  -->
<!DOCTYPE svg PUBLIC "-//W3C//DTD SVG 1.1//EN" "http://www.w3.org/Graphics/SVG/1.1/DTD/svg11.dtd">
<svg version="1.1" id="Layer_1" xmlns="http://www.w3.org/2000/svg" xmlns:xlink="http://www.w3.org/1999/xlink" x="0px" y="0px"
	 width="710px" height="242px" viewBox="38.5 422.5 710 242" enable-background="new 38.5 422.5 710 242" xml:space="preserve">
<g id="Layer_1_1_">
	<g enable-background="new    ">
		<path fill="#3D3D3C" d="M155.812,571.387c-0.145,1.367-0.216,2.499-0.216,3.397c0,3.811,0.934,6.74,2.804,8.789
			c1.869,2.049,4.368,3.073,7.495,3.073c2.624,0,5.204-0.629,7.738-1.888c2.534-1.258,5.635-3.756,9.302-7.495l3.613,2.805
			c-4.206,4.638-8.331,7.927-12.375,9.867s-8.404,2.911-13.076,2.911c-6.615,0-11.818-1.896-15.61-5.688
			c-3.793-3.792-5.689-8.941-5.689-15.448c0-5.788,1.582-11.332,4.745-16.635s7.486-9.481,12.968-12.537
			c5.481-3.055,11.386-4.583,17.713-4.583c4.637,0,8.231,1.114,10.784,3.343c2.552,2.229,3.829,5.051,3.829,8.466
			c0,2.841-1.024,5.688-3.074,8.548c-2.049,2.856-5.375,5.338-9.976,7.439C172.186,567.855,165.194,569.734,155.812,571.387z
			 M156.459,566.857c6.147-1.184,10.623-3.084,13.426-5.703c3.846-3.622,5.77-7.692,5.77-12.212c0-1.865-0.44-3.326-1.321-4.386
			c-0.881-1.059-1.987-1.587-3.316-1.587c-2.661,0-5.141,1.598-7.441,4.788C160.197,552.386,157.825,558.753,156.459,566.857z"/>
	</g>
	<g enable-background="new    ">
		<path fill="#3D3D3C" d="M198.143,555.211h27.392v13.695h-27.392V555.211z"/>
		<path fill="#3D3D3C" d="M313.334,524.906l-10.632,10.515c-6.729-7.117-14.572-10.676-23.53-10.676
			c-7.809,0-14.347,2.588-19.618,7.765c-5.271,5.176-7.906,11.469-7.906,18.872c0,7.657,2.735,14.146,8.205,19.466
			c5.47,5.32,12.217,7.98,20.242,7.98c5.218,0,9.618-1.096,13.198-3.289c3.581-2.192,6.468-5.626,8.664-10.299h-22.971v-14.183
			h39.902l0.108,3.344c0,6.938-1.798,13.517-5.392,19.734c-3.595,6.22-8.25,10.965-13.966,14.235
			c-5.716,3.271-12.42,4.907-20.113,4.907c-8.232,0-15.575-1.789-22.027-5.365c-6.453-3.576-11.558-8.672-15.314-15.287
			c-3.757-6.613-5.635-13.75-5.635-21.406c0-10.496,3.469-19.628,10.407-27.393c8.231-9.238,18.944-13.857,32.138-13.857
			c6.902,0,13.354,1.276,19.357,3.828C303.521,515.956,308.481,519.658,313.334,524.906z"/>
		<path fill="#3D3D3C" d="M366.327,509.971c11.223,0,20.872,4.063,28.948,12.187c8.076,8.125,12.114,18.027,12.114,29.711
			c0,11.576-3.983,21.372-11.952,29.388c-7.968,8.018-17.635,12.024-29.001,12.024c-11.907,0-21.799-4.116-29.676-12.349
			c-7.877-8.231-11.816-18.011-11.816-29.334c0-7.584,1.834-14.559,5.503-20.922c3.669-6.361,8.714-11.404,15.135-15.125
			C352.001,511.831,358.917,509.971,366.327,509.971z M366.166,524.745c-7.342,0-13.513,2.553-18.515,7.656
			c-5.002,5.104-7.502,11.594-7.502,19.466c0,8.771,3.148,15.71,9.446,20.813c4.895,3.99,10.507,5.985,16.84,5.985
			c7.161,0,13.26-2.589,18.298-7.766c5.039-5.177,7.558-11.558,7.558-19.143c0-7.549-2.538-13.938-7.611-19.169
			C379.607,527.358,373.434,524.745,366.166,524.745z"/>
		<path fill="#3D3D3C" d="M411.636,511.966h15.522l19.958,56.349l20.247-56.349h15.504l-28.579,79.318h-14.56L411.636,511.966z"/>
	</g>
	<circle fill="#05A67A" cx="564.984" cy="548.101" r="81.601"/>
	<g enable-background="new    ">
		<path fill="#FFFFFF" d="M516.092,532.72h-10.647c0.554-4.302,2.098-7.759,4.631-10.372c3.537-3.642,7.982-5.463,13.342-5.463
			c4.776,0,8.781,1.519,12.015,4.553c3.232,3.035,4.851,6.639,4.851,10.809c0,2.587-0.706,4.948-2.118,7.086
			s-3.464,3.866-6.156,5.186c3.537,1.058,6.301,2.897,8.294,5.522c1.993,2.627,2.989,5.721,2.989,9.284
			c0,5.226-1.928,9.651-5.78,13.28c-3.854,3.63-8.763,5.443-14.727,5.443c-5.647,0-10.253-1.709-13.815-5.127
			c-3.563-3.417-5.518-8.068-5.858-13.954h10.966c0.475,3.009,1.523,5.245,3.146,6.71s3.674,2.197,6.155,2.197
			c2.587,0,4.731-0.832,6.433-2.494c1.703-1.663,2.555-3.695,2.555-6.097c0-2.64-1.147-4.869-3.444-6.69
			c-2.295-1.821-5.606-2.758-9.936-2.811v-9.501c2.665-0.211,4.649-0.627,5.957-1.247c1.307-0.62,2.321-1.472,3.049-2.555
			c0.726-1.081,1.088-2.229,1.088-3.443c0-1.583-0.554-2.896-1.662-3.938s-2.561-1.563-4.354-1.563c-1.583,0-3.022,0.48-4.315,1.443
			C517.451,529.942,516.566,531.189,516.092,532.72z"/>
		<path fill="#FFFFFF" d="M566.615,516.885l9.44,4.723l-10.193,19.782c4.935,0,9.132,1.77,12.589,5.306
			c3.457,3.537,5.186,7.931,5.186,13.183c0,5.067-1.773,9.362-5.324,12.886c-3.549,3.523-7.832,5.285-12.846,5.285
			c-5.252,0-9.627-1.827-13.123-5.482c-3.498-3.654-5.246-7.845-5.246-12.568c0-1.795,0.271-3.604,0.813-5.424
			c0.54-1.821,1.787-4.618,3.74-8.394L566.615,516.885z M565.229,551.88c-2.059,0-3.786,0.746-5.186,2.237
			c-1.398,1.491-2.098,3.357-2.098,5.602s0.731,4.131,2.196,5.661c1.466,1.53,3.174,2.296,5.126,2.296
			c2.06,0,3.827-0.752,5.306-2.257c1.478-1.504,2.218-3.404,2.218-5.7c0-2.243-0.721-4.109-2.158-5.602
			C569.193,552.626,567.393,551.88,565.229,551.88z"/>
		<path fill="#FFFFFF" d="M608.032,516.885c4.249,0,7.911,1.043,10.984,3.127c3.074,2.086,5.449,5.272,7.126,9.562
			s2.515,10.261,2.515,17.914c0,7.732-0.852,13.75-2.555,18.052c-1.7,4.302-3.991,7.462-6.867,9.48
			c-2.878,2.02-6.507,3.028-10.887,3.028c-4.382,0-8.063-1.017-11.045-3.049c-2.982-2.031-5.317-5.119-7.008-9.263
			c-1.69-4.145-2.533-10.042-2.533-17.696c0-10.688,1.648-18.434,4.948-23.237C596.38,519.524,601.486,516.885,608.032,516.885z
			 M608.289,527.415c-1.87,0-3.529,0.601-4.979,1.802c-1.448,1.201-2.555,3.267-3.316,6.195c-0.766,2.929-1.146,7.219-1.146,12.865
			c0,7.363,0.875,12.45,2.627,15.262c1.752,2.811,4.023,4.216,6.814,4.216c2.686,0,4.82-1.332,6.4-3.998
			c1.922-3.22,2.883-8.604,2.883-16.151c0-7.653-0.862-12.933-2.587-15.836C613.26,528.867,611.028,527.415,608.289,527.415z"/>
	</g>
</g>
</svg>
