<svg xmlns="http://www.w3.org/2000/svg" xmlns:xlink="http://www.w3.org/1999/xlink" width="1920" height="1080" viewBox="0 0 1920 1080">
  <defs>
    <filter id="Path_240" x="1585.957" y="692.39" width="651.616" height="686.643" filterUnits="userSpaceOnUse">
      <feOffset dy="3" input="SourceAlpha"/>
      <feGaussianBlur stdDeviation="3" result="blur"/>
      <feFlood flood-opacity="0.161"/>
      <feComposite operator="in" in2="blur"/>
      <feComposite in="SourceGraphic"/>
    </filter>
    <filter id="Path_241" x="1756.308" y="584.861" width="320.903" height="767.713" filterUnits="userSpaceOnUse">
      <feOffset dy="3" input="SourceAlpha"/>
      <feGaussianBlur stdDeviation="3" result="blur-2"/>
      <feFlood flood-opacity="0.161"/>
      <feComposite operator="in" in2="blur-2"/>
      <feComposite in="SourceGraphic"/>
    </filter>
    <clipPath id="clip-Web_1920_2">
      <rect width="1920" height="1080"/>
    </clipPath>
  </defs>
  <g id="Web_1920_2" data-name="Web 1920 – 2" clip-path="url(#clip-Web_1920_2)">
    <rect width="1920" height="1080" fill="#fff"/>
    <circle id="Ellipse_16" data-name="Ellipse 16" cx="750.5" cy="750.5" r="750.5" transform="translate(-917 -171)" fill="#1c75bc"/>
    <path id="Path_238" data-name="Path 238" d="M1952.121,540s397.576-417.576,496.97-146.061-72.728,882.424,172.121,867.879-727.273-7.273-712.727-121.212S1952.121,540,1952.121,540Z" transform="matrix(0.848, 0.53, -0.53, 0.848, -1432.392, -998.782)" fill="#05a67a"/>
    <path id="Path_237" data-name="Path 237" d="M1943.636-62.424s615.757-46.061,368.485,397.576S1967.879,1210.3,2050.3,1280.606,1664.848,165.455,1890.3,10.3,1943.636-62.424,1943.636-62.424Z" transform="translate(-2020 150)" fill="#ffbe08"/>
    <path id="Path_239" data-name="Path 239" d="M1947.879,1001.212c26.667-36.364,116.364,160,603.636-160s664.242,123.636,584.242,281.212-623.031,334.545-780.606,261.818-397.576-203.636-407.273-276.364,0-106.667,0-106.667" transform="matrix(0.848, 0.53, -0.53, 0.848, -1246.577, -1173.957)" fill="#8dc63f"/>
    <g id="Group_15" data-name="Group 15" transform="translate(2294.333 632.131)" opacity="0.9">
      <g transform="matrix(1, 0, 0, 1, -2294.33, -632.13)" filter="url(#Path_240)">
        <path id="Path_240-2" data-name="Path 240" d="M27.141,394.776S249.951,626.705,303.9,477.568,259.389-8.972,395.477.183-8.509.8.1,63.648,27.141,394.776,27.141,394.776Z" transform="matrix(-0.85, 0.53, -0.53, -0.85, 2228.57, 1145.8)" fill="#f5f5f5"/>
      </g>
      <g transform="matrix(1, 0, 0, 1, -2294.33, -632.13)" filter="url(#Path_241)">
        <path id="Path_241-2" data-name="Path 241" d="M2066.754-72.31s-343.863-25.245-205.776,217.9,192.238,479.647,146.209,518.178S2222.44,52.585,2096.538-32.45,2066.754-72.31,2066.754-72.31Z" transform="translate(-62.97 675.16)" fill="#f5f5f5"/>
      </g>
      <path id="Path_242" data-name="Path 242" d="M2.619,217.96c14.983,20.16,63.9-87.615,336.082,90.969S707.13,243.9,661.954,156.708,314.284-30.524,227.086,8.814,7.17,119.162,2.122,159.188s.5,58.772.5,58.772" transform="matrix(-0.848, 0.53, -0.53, -0.848, -110.526, 541.846)" fill="#f5f5f5"/>
    </g>
    <g id="Group_332" data-name="Group 332" transform="translate(209 29)">
      <text id="_2019_ANSCIMS_-_All_Rights_Reserved_" data-name="© 2019 ANSCIMS - All Rights Reserved " transform="translate(868 916)" font-size="15" font-family="SegoeUI-SemiboldItalic, Segoe UI" font-weight="600" font-style="italic"><tspan x="0" y="16">© 2019 ANSCIMS - All Rights Reserved </tspan></text>
      <g id="Group_16" data-name="Group 16" transform="translate(-11 488.8)">
        <text id="e" transform="translate(1512.761 441.904)" fill="#3d3d3c" font-size="16" font-family="CenturySchoolbook-BoldItalic, Century Schoolbook" font-weight="700" font-style="italic" letter-spacing="-0.027em"><tspan x="0" y="0">e</tspan></text>
        <text id="_-GOV" data-name="-GOV" transform="translate(1521.822 443.732)" fill="#3d3d3c" font-size="18" font-family="CenturyGothic-Bold, Century Gothic" font-weight="700" letter-spacing="-0.027em"><tspan x="0" y="0">-GOV</tspan></text>
        <ellipse id="Ellipse_15" data-name="Ellipse 15" cx="13.977" cy="13.977" rx="13.977" ry="13.977" transform="translate(1572.305 423.2)" fill="#05a67a"/>
        <text id="_360" data-name="360" transform="translate(1575.27 440.353)" fill="#fff" font-size="12" font-family="CenturyGothic-Bold, Century Gothic" font-weight="700" letter-spacing="-0.037em"><tspan x="0" y="0">360</tspan></text>
      </g>
      <g id="UOE_DOMOS_logo_copy" data-name="UOE_DOMOS logo copy" transform="translate(1221.499 855.907)">
        <path id="Path_363" data-name="Path 363" d="M193.56,57.176h17.51V84.3H183.948V66.787h5V79.3h17.115V62.18H193.56Z" transform="translate(-131.535 -2.372)" fill="#002c43"/>
        <rect id="Rectangle_611" data-name="Rectangle 611" width="7.9" height="7.901" transform="translate(62.025 64.416)" fill="#72bf44"/>
        <rect id="Rectangle_612" data-name="Rectangle 612" width="7.9" height="7.9" transform="translate(50.307 53.093)" fill="#72bf44"/>
        <g id="Group_267" data-name="Group 267" transform="translate(85.544 64.44)">
          <path id="Path_364" data-name="Path 364" d="M267.7,92.648a5.847,5.847,0,0,1-2.11-.343,3.928,3.928,0,0,1-1.466-.954,3.811,3.811,0,0,1-.854-1.457,6,6,0,0,1-.276-1.868V80.807h2.613v7a3.937,3.937,0,0,0,.159,1.2,2.206,2.206,0,0,0,.435.8,1.551,1.551,0,0,0,.67.444,2.652,2.652,0,0,0,.863.134,2.112,2.112,0,0,0,1.549-.586,2.737,2.737,0,0,0,.595-1.993v-7h2.613v7.219a5.9,5.9,0,0,1-.285,1.876,3.847,3.847,0,0,1-.871,1.466,3.9,3.9,0,0,1-1.49.946A6.178,6.178,0,0,1,267.7,92.648Z" transform="translate(-262.994 -80.538)" fill="#002c43"/>
          <path id="Path_365" data-name="Path 365" d="M302,86.23a7.153,7.153,0,0,1-.444,2.621,5.4,5.4,0,0,1-1.214,1.893,4.983,4.983,0,0,1-1.834,1.147,6.669,6.669,0,0,1-2.286.385,6.5,6.5,0,0,1-2.244-.385,5.151,5.151,0,0,1-1.842-1.147,5.376,5.376,0,0,1-1.239-1.893,7.028,7.028,0,0,1-.452-2.621,6.8,6.8,0,0,1,.469-2.621,5.574,5.574,0,0,1,1.265-1.9,5.2,5.2,0,0,1,1.843-1.156,6.33,6.33,0,0,1,2.2-.385,6.5,6.5,0,0,1,2.245.385,5.108,5.108,0,0,1,1.842,1.156,5.459,5.459,0,0,1,1.239,1.9A7.019,7.019,0,0,1,302,86.23Zm-8.86,0a5.28,5.28,0,0,0,.209,1.541,3.523,3.523,0,0,0,.6,1.18,2.658,2.658,0,0,0,.963.762,3.3,3.3,0,0,0,2.6,0,2.652,2.652,0,0,0,.972-.762,3.533,3.533,0,0,0,.6-1.18,5.277,5.277,0,0,0,.21-1.541,5.357,5.357,0,0,0-.21-1.549,3.52,3.52,0,0,0-.6-1.189,2.648,2.648,0,0,0-.972-.762,3.057,3.057,0,0,0-1.3-.268,2.957,2.957,0,0,0-1.306.276,2.746,2.746,0,0,0-.963.771,3.509,3.509,0,0,0-.6,1.189A5.3,5.3,0,0,0,293.144,86.23Z" transform="translate(-278.941 -80.167)" fill="#002c43"/>
          <path id="Path_366" data-name="Path 366" d="M323.214,92.414V80.807h7.839V83h-5.226v2.278h4.639v2.144h-4.639v2.8h5.611v2.194Z" transform="translate(-297.974 -80.538)" fill="#002c43"/>
          <path id="Path_367" data-name="Path 367" d="M367.185,86.416a6.782,6.782,0,0,1-.469,2.629,4.874,4.874,0,0,1-1.331,1.859,5.681,5.681,0,0,1-2.1,1.106,9.748,9.748,0,0,1-2.78.368q-.7,0-1.642-.059a13.465,13.465,0,0,1-1.843-.243V80.771a15.491,15.491,0,0,1,1.884-.226q.98-.059,1.683-.059a10.16,10.16,0,0,1,2.7.335,5.534,5.534,0,0,1,2.086,1.055,4.692,4.692,0,0,1,1.34,1.843A6.97,6.97,0,0,1,367.185,86.416ZM359.632,90.1c.123.011.265.02.427.026s.354.008.578.008a3.854,3.854,0,0,0,2.906-.988,3.785,3.785,0,0,0,.946-2.73,3.275,3.275,0,0,0-3.768-3.7q-.269,0-.553.008a5.181,5.181,0,0,0-.536.042V90.1Z" transform="translate(-317.609 -80.352)" fill="#002c43"/>
          <path id="Path_368" data-name="Path 368" d="M396.828,86.23a7.153,7.153,0,0,1-.444,2.621,5.405,5.405,0,0,1-1.214,1.893,4.992,4.992,0,0,1-1.835,1.147,6.669,6.669,0,0,1-2.286.385,6.5,6.5,0,0,1-2.244-.385,5.158,5.158,0,0,1-1.843-1.147,5.364,5.364,0,0,1-1.239-1.893,7.019,7.019,0,0,1-.452-2.621,6.8,6.8,0,0,1,.469-2.621,5.574,5.574,0,0,1,1.265-1.9,5.2,5.2,0,0,1,1.842-1.156,6.332,6.332,0,0,1,2.2-.385,6.5,6.5,0,0,1,2.245.385,5.108,5.108,0,0,1,1.842,1.156,5.464,5.464,0,0,1,1.239,1.9A7.026,7.026,0,0,1,396.828,86.23Zm-8.86,0a5.265,5.265,0,0,0,.21,1.541,3.514,3.514,0,0,0,.6,1.18,2.663,2.663,0,0,0,.964.762,3.294,3.294,0,0,0,2.6,0,2.649,2.649,0,0,0,.972-.762,3.526,3.526,0,0,0,.6-1.18,5.263,5.263,0,0,0,.21-1.541,5.343,5.343,0,0,0-.21-1.549,3.513,3.513,0,0,0-.6-1.189,2.645,2.645,0,0,0-.972-.762,3.049,3.049,0,0,0-1.3-.268,2.954,2.954,0,0,0-1.306.276,2.751,2.751,0,0,0-.964.771,3.515,3.515,0,0,0-.6,1.189A5.281,5.281,0,0,0,387.968,86.23Z" transform="translate(-334.02 -80.167)" fill="#002c43"/>
          <path id="Path_369" data-name="Path 369" d="M420.656,80.807q.3.553.7,1.365t.823,1.758q.427.947.848,1.934t.789,1.86l.789-1.86q.42-.988.848-1.934t.823-1.758q.4-.812.7-1.365h2.378q.167,1.156.309,2.588t.251,2.981q.109,1.549.2,3.107t.159,2.931h-2.546q-.05-1.691-.133-3.685t-.251-4.02q-.3.7-.672,1.558t-.731,1.708q-.361.854-.7,1.633t-.571,1.332h-1.825q-.236-.553-.571-1.332t-.7-1.633q-.361-.854-.73-1.708t-.672-1.558q-.169,2.027-.252,4.02t-.134,3.685h-2.546q.067-1.374.16-2.931t.2-3.107q.109-1.549.251-2.981t.31-2.588Z" transform="translate(-352.589 -80.538)" fill="#002c43"/>
          <path id="Path_370" data-name="Path 370" d="M464.24,86.23a7.153,7.153,0,0,1-.444,2.621,5.393,5.393,0,0,1-1.214,1.893,4.992,4.992,0,0,1-1.835,1.147,6.668,6.668,0,0,1-2.286.385,6.5,6.5,0,0,1-2.245-.385,5.161,5.161,0,0,1-1.842-1.147,5.354,5.354,0,0,1-1.239-1.893,7.011,7.011,0,0,1-.453-2.621,6.8,6.8,0,0,1,.469-2.621,5.581,5.581,0,0,1,1.265-1.9,5.194,5.194,0,0,1,1.842-1.156,6.338,6.338,0,0,1,2.2-.385,6.5,6.5,0,0,1,2.244.385,5.094,5.094,0,0,1,1.843,1.156,5.457,5.457,0,0,1,1.239,1.9A7.026,7.026,0,0,1,464.24,86.23Zm-8.86,0a5.266,5.266,0,0,0,.21,1.541,3.515,3.515,0,0,0,.6,1.18,2.667,2.667,0,0,0,.964.762,3.294,3.294,0,0,0,2.6,0,2.649,2.649,0,0,0,.972-.762,3.534,3.534,0,0,0,.6-1.18,5.293,5.293,0,0,0,.209-1.541,5.373,5.373,0,0,0-.209-1.549,3.528,3.528,0,0,0-.6-1.189,2.645,2.645,0,0,0-.972-.762,3.048,3.048,0,0,0-1.3-.268,2.955,2.955,0,0,0-1.306.276,2.755,2.755,0,0,0-.964.771,3.516,3.516,0,0,0-.6,1.189A5.282,5.282,0,0,0,455.38,86.23Z" transform="translate(-373.178 -80.167)" fill="#002c43"/>
          <path id="Path_371" data-name="Path 371" d="M487.619,90.048a3.762,3.762,0,0,0,.913-.092,1.689,1.689,0,0,0,.578-.251.841.841,0,0,0,.3-.377,1.344,1.344,0,0,0,.083-.486,1.124,1.124,0,0,0-.535-.946,7.7,7.7,0,0,0-1.843-.812q-.57-.2-1.139-.461a4.2,4.2,0,0,1-1.022-.653,3.114,3.114,0,0,1-.738-.955,2.989,2.989,0,0,1-.284-1.365,3.37,3.37,0,0,1,.3-1.449,3.091,3.091,0,0,1,.854-1.1,3.909,3.909,0,0,1,1.34-.7,6.019,6.019,0,0,1,1.775-.243,7.1,7.1,0,0,1,3.433.8l-.754,2.06a7.169,7.169,0,0,0-1.08-.444,4.689,4.689,0,0,0-1.433-.193,2.628,2.628,0,0,0-1.348.26.877.877,0,0,0-.41.8.923.923,0,0,0,.15.536,1.457,1.457,0,0,0,.428.393,3.728,3.728,0,0,0,.637.319q.36.143.795.293.9.335,1.575.661a4.217,4.217,0,0,1,1.113.762,2.766,2.766,0,0,1,.661,1.022,4.109,4.109,0,0,1,.218,1.423,3.024,3.024,0,0,1-1.139,2.521,5.5,5.5,0,0,1-3.433.9,9.525,9.525,0,0,1-1.39-.092,8.91,8.91,0,0,1-1.1-.226,6.24,6.24,0,0,1-.821-.285,6.12,6.12,0,0,1-.578-.285l.737-2.077a6.335,6.335,0,0,0,3.149.738Z" transform="translate(-391.213 -80.166)" fill="#002c43"/>
          <path id="Path_372" data-name="Path 372" d="M526.052,90.17v2.244H518.3V80.807h2.613V90.17Z" transform="translate(-411.29 -80.538)" fill="#002c43"/>
          <path id="Path_373" data-name="Path 373" d="M544.894,80.807v2.227h-3.5v9.379h-2.612V83.034h-3.5V80.807Z" transform="translate(-421.156 -80.538)" fill="#002c43"/>
          <path id="Path_374" data-name="Path 374" d="M572.38,86.416a6.8,6.8,0,0,1-.468,2.629,4.875,4.875,0,0,1-1.332,1.859,5.674,5.674,0,0,1-2.1,1.106,9.744,9.744,0,0,1-2.78.368q-.7,0-1.641-.059a13.465,13.465,0,0,1-1.843-.243V80.771a15.5,15.5,0,0,1,1.884-.226q.98-.059,1.683-.059a10.171,10.171,0,0,1,2.706.335,5.542,5.542,0,0,1,2.085,1.055,4.693,4.693,0,0,1,1.34,1.843A6.994,6.994,0,0,1,572.38,86.416ZM564.826,90.1q.184.017.427.026c.161.006.355.008.578.008a3.851,3.851,0,0,0,2.905-.988,3.783,3.783,0,0,0,.946-2.73,3.274,3.274,0,0,0-3.768-3.7q-.268,0-.552.008a5.215,5.215,0,0,0-.536.042V90.1Z" transform="translate(-436.8 -80.352)" fill="#002c43"/>
          <path id="Path_375" data-name="Path 375" d="M591.184,103.207a1.4,1.4,0,0,1-.477,1.147,1.68,1.68,0,0,1-2.161,0,1.617,1.617,0,0,1,0-2.294,1.681,1.681,0,0,1,2.161,0A1.4,1.4,0,0,1,591.184,103.207Z" transform="translate(-451.818 -92.655)" fill="#002c43"/>
        </g>
        <text id="Powered_by" data-name="Powered by" transform="translate(-42.499 75.976)" font-size="16" font-family="MyriadPro-Regular, Myriad Pro"><tspan x="0" y="0">Powered by</tspan></text>
      </g>
      <line id="Line_1" data-name="Line 1" y2="19" transform="translate(1151.5 916.5)" fill="none" stroke="#707070" stroke-width="2"/>
      <line id="Line_2" data-name="Line 2" y2="19" transform="translate(1481.5 916.5)" fill="none" stroke="#707070" stroke-width="2"/>
    </g>
  </g>
</svg>
