<svg xmlns="http://www.w3.org/2000/svg" xmlns:xlink="http://www.w3.org/1999/xlink" width="1920" height="1080" viewBox="0 0 1920 1080">
  <defs>
    <filter id="Path_245" x="1388.1" y="-23.7" width="571.4" height="1233" filterUnits="userSpaceOnUse">
      <feOffset dx="8" input="SourceAlpha"/>
      <feGaussianBlur stdDeviation="10.5" result="blur"/>
      <feFlood flood-opacity="0.161"/>
      <feComposite operator="in" in2="blur"/>
      <feComposite in="SourceGraphic"/>
    </filter>
    <filter id="Path_246" x="-7" y="-122" width="438.245" height="1286.435" filterUnits="userSpaceOnUse">
      <feOffset dy="3" input="SourceAlpha"/>
      <feGaussianBlur stdDeviation="3" result="blur-2"/>
      <feFlood flood-opacity="0.161"/>
      <feComposite operator="in" in2="blur-2"/>
      <feComposite in="SourceGraphic"/>
    </filter>
    <filter id="Path_240" x="689.831" y="887.125" width="592.516" height="614.116" filterUnits="userSpaceOnUse">
      <feOffset dy="3" input="SourceAlpha"/>
      <feGaussianBlur stdDeviation="3" result="blur-3"/>
      <feFlood flood-opacity="0.161"/>
      <feComposite operator="in" in2="blur-3"/>
      <feComposite in="SourceGraphic"/>
    </filter>
    <filter id="Path_241" x="675.303" y="917.978" width="735.061" height="516.112" filterUnits="userSpaceOnUse">
      <feOffset dy="3" input="SourceAlpha"/>
      <feGaussianBlur stdDeviation="3" result="blur-4"/>
      <feFlood flood-opacity="0.161"/>
      <feComposite operator="in" in2="blur-4"/>
      <feComposite in="SourceGraphic"/>
    </filter>
    <clipPath id="clip-path">
      <rect id="Rectangle_607" data-name="Rectangle 607" width="522" height="1123" transform="translate(-81 -10)" stroke="#707070" stroke-width="1" opacity="0.35"/>
    </clipPath>
    <clipPath id="clip-Web_1920_5">
      <rect width="1920" height="1080"/>
    </clipPath>
  </defs>
  <g id="Web_1920_5" data-name="Web 1920 – 5" clip-path="url(#clip-Web_1920_5)">
    <rect width="1920" height="1080" fill="#fff"/>
    <g id="Group_299" data-name="Group 299" transform="translate(1274.6 86)">
      <g transform="matrix(1, 0, 0, 1, -1274.6, -86)" filter="url(#Path_245)">
        <path id="Path_245-2" data-name="Path 245" d="M6586.4,0V1170H6078s610.665-368.927,371.074-439.941S6586.4,0,6586.4,0Z" transform="translate(-4666.4 7.8)" fill="#ffbe08"/>
      </g>
    </g>
    <g transform="matrix(1, 0, 0, 1, 0, 0)" filter="url(#Path_246)">
      <path id="Path_246-2" data-name="Path 246" d="M0,0S376.458,42.532,198.332,577.216c-51.122,153.454-39.615,229.586-4.2,267.521,87.568,93.793,322.083-48.826,107.882,169.948C1.6,1321.52,420.245,1264.194,420.245,1264.194H0Z" transform="translate(2 -116)" fill="#fff"/>
    </g>
    <path id="Path_238" data-name="Path 238" d="M64.465,350.03S649.65-264.593,795.947,135.046,688.9,1433.872,1049.289,1412.462-21.172,1401.758.237,1234.052,64.465,350.03,64.465,350.03Z" transform="matrix(0.848, 0.53, -0.53, 0.848, -154.968, 334.434)" fill="#05a67a"/>
    <path id="Path_237" data-name="Path 237" d="M1961.588-59.02s711.576-53.228,425.825,459.443S1989.6,1411.757,2084.853,1493,1639.417,204.319,1899.955,25.024,1961.588-59.02,1961.588-59.02Z" transform="translate(-2045.123 890.139)" fill="#1c75bc"/>
    <g id="Group_15" data-name="Group 15" transform="translate(1475.469 1466.621) rotate(68)" opacity="0.3">
      <g transform="matrix(0.37, -0.93, 0.93, 0.37, -1912.55, 818.62)" filter="url(#Path_240)">
        <path id="Path_240-2" data-name="Path 240" d="M24.069,350.088S221.657,555.763,269.5,423.508,230.027-7.957,350.71.162-7.546.711.091,56.443,24.069,350.088,24.069,350.088Z" transform="matrix(-0.81, -0.59, 0.59, -0.81, 998.35, 1489.24)" fill="#8b8b8b"/>
      </g>
      <g transform="matrix(0.37, -0.93, 0.93, 0.37, -1912.55, 818.62)" filter="url(#Path_241)">
        <path id="Path_241-2" data-name="Path 241" d="M2039.758-73.667S1734.82-96.054,1857.276,119.568s170.477,425.352,129.659,459.521,190.887-542,79.236-617.408S2039.758-73.667,2039.758-73.667Z" transform="translate(537.69 -739.59) rotate(68)" fill="#aaa"/>
      </g>
      <path id="Path_242" data-name="Path 242" d="M2.322,193.287c13.287,17.878,56.665-77.7,298.038,80.672s326.724-57.666,286.661-134.99S278.708-27.069,201.38,7.816,6.358,105.673,1.882,141.168s.441,52.119.441,52.119" transform="matrix(-0.848, 0.53, -0.53, -0.848, -197.459, 475.838)" fill="#c5c5c5"/>
    </g>
    <path id="Path_381" data-name="Path 381" d="M0,0H420V49.1H0Z" transform="translate(0 303.5)" fill="none"/>
    <path id="Path_382" data-name="Path 382" d="M0,0H420V49.1H0Z" transform="translate(0 350.5)" fill="none"/>
    <path id="Path_383" data-name="Path 383" d="M0,0H420V49.1H0Z" transform="translate(0 399.5)" fill="none"/>
    <path id="Path_384" data-name="Path 384" d="M0,0H420V49.1H0Z" transform="translate(0 443.5)" fill="none"/>
    <text id="_2" data-name="2" transform="translate(1529 43)" fill="#fff" font-size="10" font-family="SegoeUI, Segoe UI"><tspan x="0" y="0">2</tspan></text>
    <g id="single-03" transform="translate(492.5 194.5)">
      <path id="Shape" d="M12.25,0A5.981,5.981,0,0,1,8,1.769,5.981,5.981,0,0,1,3.75,0,7.985,7.985,0,0,0,0,6.769v1H16v-1A7.985,7.985,0,0,0,12.25,0Z" transform="translate(0 8.231)" fill="#fff"/>
      <circle id="Oval" cx="4" cy="4" r="4" transform="translate(4)" fill="#fff"/>
    </g>
    <g id="single-03-2" data-name="single-03" transform="translate(833.5 194.5)">
      <path id="Shape-2" data-name="Shape" d="M12.25,0A5.981,5.981,0,0,1,8,1.769,5.981,5.981,0,0,1,3.75,0,7.985,7.985,0,0,0,0,6.769v1H16v-1A7.985,7.985,0,0,0,12.25,0Z" transform="translate(0 8.231)" fill="#fff"/>
      <circle id="Oval-2" data-name="Oval" cx="4" cy="4" r="4" transform="translate(4)" fill="#fff"/>
    </g>
    <g id="trend-up" transform="translate(1498.5 199.5)">
      <path id="Shape-3" data-name="Shape" d="M8.7,2h3.6L8.7,5.6l-4-4L0,6.3,1.4,7.7,4.7,4.4l4,4,5-5V7h2V0h-7Z" transform="translate(0.3)" fill="#fff"/>
    </g>
    <g id="new-user" transform="translate(1642.879 217.166)" opacity="0.25">
      <g id="Group_331" data-name="Group 331" transform="translate(36.121)">
        <path id="Path_424" data-name="Path 424" d="M158.008,37.93c10.537,0,14.329-10.551,15.322-19.218C174.552,8.035,169.5,0,158.008,0s-16.545,8.035-15.322,18.712C143.68,27.379,147.47,37.931,158.008,37.93Z" transform="translate(-129.499)" fill="#fff"/>
        <path id="Path_425" data-name="Path 425" d="M87.672,302.13q.509,0,1.01.029a8.054,8.054,0,0,0-1.761-1.854c-2.025-1.511-4.647-2.007-6.965-2.918A30.146,30.146,0,0,1,76.868,296a16.675,16.675,0,0,1-24.475,0,30.143,30.143,0,0,1-3.088,1.385c-2.318.911-4.94,1.407-6.965,2.918-3.5,2.614-4.407,8.493-5.118,12.5a71.9,71.9,0,0,0-1.1,10.052c-.089,2.6,1.2,2.97,3.376,3.757a63.1,63.1,0,0,0,8.382,2.314,84.493,84.493,0,0,0,16.746,2.085,67.341,67.341,0,0,0,8.167-.591,18.053,18.053,0,0,1,14.874-28.3Z" transform="translate(-36.121 -259.808)" fill="#fff"/>
        <path id="Path_426" data-name="Path 426" d="M353.986,375.658a14.45,14.45,0,1,0,14.45,14.45A14.45,14.45,0,0,0,353.986,375.658Zm6.322,16.929h-3.843v3.842a2.479,2.479,0,1,1-4.958,0v-3.842h-3.842a2.479,2.479,0,0,1,0-4.959h3.842v-3.842a2.479,2.479,0,1,1,4.958,0v3.842h3.843a2.479,2.479,0,0,1,0,4.959Z" transform="translate(-302.435 -329.723)" fill="#fff"/>
      </g>
    </g>
    <g id="company" transform="translate(1155 193)">
      <g id="Group_304" data-name="Group 304" transform="translate(1.2 4.5)">
        <g id="Group_303" data-name="Group 303">
          <path id="Path_410" data-name="Path 410" d="M33.5,120H32.3a.3.3,0,0,0-.3.3h0v1.2a.3.3,0,0,0,.3.3h1.2a.3.3,0,0,0,.3-.3h0v-1.2A.3.3,0,0,0,33.5,120Zm-.3,1.2h-.6v-.6h.6Z" transform="translate(-32 -120)" fill="#fff"/>
        </g>
      </g>
      <g id="Group_306" data-name="Group 306" transform="translate(4.8 4.5)">
        <g id="Group_305" data-name="Group 305">
          <path id="Path_411" data-name="Path 411" d="M129.5,120h-1.2a.3.3,0,0,0-.3.3h0v1.2a.3.3,0,0,0,.3.3h1.2a.3.3,0,0,0,.3-.3h0v-1.2A.3.3,0,0,0,129.5,120Zm-.3,1.2h-.6v-.6h.6Z" transform="translate(-128 -120)" fill="#fff"/>
        </g>
      </g>
      <g id="Group_308" data-name="Group 308" transform="translate(8.4 4.5)">
        <g id="Group_307" data-name="Group 307">
          <path id="Path_412" data-name="Path 412" d="M225.5,120h-1.2a.3.3,0,0,0-.3.3h0v1.2a.3.3,0,0,0,.3.3h1.2a.3.3,0,0,0,.3-.3h0v-1.2A.3.3,0,0,0,225.5,120Zm-.3,1.2h-.6v-.6h.6Z" transform="translate(-224 -120)" fill="#fff"/>
        </g>
      </g>
      <g id="Group_310" data-name="Group 310" transform="translate(1.2 7.8)">
        <g id="Group_309" data-name="Group 309">
          <path id="Path_413" data-name="Path 413" d="M33.5,208H32.3a.3.3,0,0,0-.3.3h0v1.2a.3.3,0,0,0,.3.3h1.2a.3.3,0,0,0,.3-.3h0v-1.2A.3.3,0,0,0,33.5,208Zm-.3,1.2h-.6v-.6h.6Z" transform="translate(-32 -208)" fill="#fff"/>
        </g>
      </g>
      <g id="Group_312" data-name="Group 312" transform="translate(4.8 7.8)">
        <g id="Group_311" data-name="Group 311">
          <path id="Path_414" data-name="Path 414" d="M129.5,208h-1.2a.3.3,0,0,0-.3.3h0v1.2a.3.3,0,0,0,.3.3h1.2a.3.3,0,0,0,.3-.3h0v-1.2A.3.3,0,0,0,129.5,208Zm-.3,1.2h-.6v-.6h.6Z" transform="translate(-128 -208)" fill="#fff"/>
        </g>
      </g>
      <g id="Group_314" data-name="Group 314" transform="translate(8.4 7.8)">
        <g id="Group_313" data-name="Group 313">
          <path id="Path_415" data-name="Path 415" d="M225.5,208h-1.2a.3.3,0,0,0-.3.3h0v1.2a.3.3,0,0,0,.3.3h1.2a.3.3,0,0,0,.3-.3h0v-1.2A.3.3,0,0,0,225.5,208Zm-.3,1.2h-.6v-.6h.6Z" transform="translate(-224 -208)" fill="#fff"/>
        </g>
      </g>
      <g id="Group_316" data-name="Group 316" transform="translate(1.2 11.1)">
        <g id="Group_315" data-name="Group 315">
          <path id="Path_416" data-name="Path 416" d="M33.5,296H32.3a.3.3,0,0,0-.3.3h0v1.2a.3.3,0,0,0,.3.3h1.2a.3.3,0,0,0,.3-.3h0v-1.2A.3.3,0,0,0,33.5,296Zm-.3,1.2h-.6v-.6h.6Z" transform="translate(-32 -296)" fill="#fff"/>
        </g>
      </g>
      <g id="Group_318" data-name="Group 318" transform="translate(4.8 11.1)">
        <g id="Group_317" data-name="Group 317">
          <path id="Path_417" data-name="Path 417" d="M129.5,296h-1.2a.3.3,0,0,0-.3.3h0v1.2a.3.3,0,0,0,.3.3h1.2a.3.3,0,0,0,.3-.3h0v-1.2A.3.3,0,0,0,129.5,296Zm-.3,1.2h-.6v-.6h.6Z" transform="translate(-128 -296)" fill="#fff"/>
        </g>
      </g>
      <g id="Group_320" data-name="Group 320" transform="translate(8.4 11.1)">
        <g id="Group_319" data-name="Group 319">
          <path id="Path_418" data-name="Path 418" d="M225.5,296h-1.2a.3.3,0,0,0-.3.3h0v1.2a.3.3,0,0,0,.3.3h1.2a.3.3,0,0,0,.3-.3h0v-1.2A.3.3,0,0,0,225.5,296Zm-.3,1.2h-.6v-.6h.6Z" transform="translate(-224 -296)" fill="#fff"/>
        </g>
      </g>
      <g id="Group_322" data-name="Group 322" transform="translate(1.2 14.4)">
        <g id="Group_321" data-name="Group 321">
          <path id="Path_419" data-name="Path 419" d="M33.5,384H32.3a.3.3,0,0,0-.3.3h0v1.2a.3.3,0,0,0,.3.3h1.2a.3.3,0,0,0,.3-.3h0v-1.2A.3.3,0,0,0,33.5,384Zm-.3,1.2h-.6v-.6h.6Z" transform="translate(-32 -384)" fill="#fff"/>
        </g>
      </g>
      <g id="Group_324" data-name="Group 324" transform="translate(8.4 14.4)">
        <g id="Group_323" data-name="Group 323">
          <path id="Path_420" data-name="Path 420" d="M225.5,384h-1.2a.3.3,0,0,0-.3.3h0v1.2a.3.3,0,0,0,.3.3h1.2a.3.3,0,0,0,.3-.3h0v-1.2A.3.3,0,0,0,225.5,384Zm-.3,1.2h-.6v-.6h.6Z" transform="translate(-224 -384)" fill="#fff"/>
        </g>
      </g>
      <g id="Group_326" data-name="Group 326" transform="translate(0 0)">
        <g id="Group_325" data-name="Group 325" transform="translate(0)">
          <path id="Path_421" data-name="Path 421" d="M17.7,7.5h-3V6a2.034,2.034,0,0,0,.885.259l.094,0A1.871,1.871,0,0,0,17.012,5.7a.3.3,0,0,0,0-.424h0l-1.031-1.03.731-.731-.424-.424-.731.731-1.03-1.03a.309.309,0,0,0-.424,0,1.942,1.942,0,0,0,0,2.728V7.5H11.4V3.6a.3.3,0,0,0-.3-.3h-.3V2.4a.3.3,0,0,0-.3-.3H9.6V.3A.3.3,0,0,0,9.3,0H2.1a.3.3,0,0,0-.3.3h0V2.1H.9a.3.3,0,0,0-.3.3h0v.9H.3a.3.3,0,0,0-.3.3H0V17.7a.3.3,0,0,0,.3.3H17.7a.3.3,0,0,0,.3-.3h0V7.8A.3.3,0,0,0,17.7,7.5ZM2.4.6H9V2.1H2.4ZM1.2,2.7h9v.6h-9ZM5.4,17.4H4.2V15.242a.543.543,0,0,1,.542-.542H5.4Zm1.8,0H6V14.7h.658a.543.543,0,0,1,.542.542Zm3.6,0h-3V15.242A1.144,1.144,0,0,0,6.658,14.1H4.742A1.144,1.144,0,0,0,3.6,15.242V17.4H.6V3.9H10.8ZM14.338,3.447l2.016,2.016a1.23,1.23,0,0,1-.738.195,1.54,1.54,0,0,1-1-.47A1.378,1.378,0,0,1,14.338,3.447ZM15.3,17.4H13.5V15.776a.477.477,0,0,1,.476-.476h.848a.477.477,0,0,1,.476.476Zm2.1,0H15.9V15.776A1.077,1.077,0,0,0,14.824,14.7h-.848A1.077,1.077,0,0,0,12.9,15.776V17.4H11.4V8.1h6Z" transform="translate(0 0)" fill="#fff"/>
        </g>
      </g>
      <g id="Group_328" data-name="Group 328" transform="translate(13.2 8.7)">
        <g id="Group_327" data-name="Group 327">
          <path id="Path_422" data-name="Path 422" d="M354.1,232h-1.8a.3.3,0,0,0-.3.3h0v1.8a.3.3,0,0,0,.3.3h1.8a.3.3,0,0,0,.3-.3h0v-1.8A.3.3,0,0,0,354.1,232Zm-.3,1.8h-1.2v-1.2h1.2Z" transform="translate(-352 -232)" fill="#fff"/>
        </g>
      </g>
      <g id="Group_330" data-name="Group 330" transform="translate(13.2 11.7)">
        <g id="Group_329" data-name="Group 329">
          <path id="Path_423" data-name="Path 423" d="M354.1,312h-1.8a.3.3,0,0,0-.3.3h0v1.8a.3.3,0,0,0,.3.3h1.8a.3.3,0,0,0,.3-.3h0v-1.8A.3.3,0,0,0,354.1,312Zm-.3,1.8h-1.2v-1.2h1.2Z" transform="translate(-352 -312)" fill="#fff"/>
        </g>
      </g>
    </g>
  </g>
</svg>
