<?xml version="1.0" encoding="utf-8"?>
<!-- Generator: Adobe Illustrator 16.0.0, SVG Export Plug-In . SVG Version: 6.00 Build 0)  -->
<!DOCTYPE svg PUBLIC "-//W3C//DTD SVG 1.1//EN" "http://www.w3.org/Graphics/SVG/1.1/DTD/svg11.dtd">
<svg version="1.1" id="Layer_1" xmlns="http://www.w3.org/2000/svg" xmlns:xlink="http://www.w3.org/1999/xlink" x="0px" y="0px"
	 width="800px" height="182.014px" viewBox="-79 0 800 182.014" enable-background="new -79 0 800 182.014" xml:space="preserve">
<polygon fill="#002C43" points="206.882,57.176 248.659,57.176 248.659,121.887 183.948,121.887 183.948,80.107 195.887,80.107 
	195.887,109.949 236.722,109.949 236.722,69.115 206.882,69.115 "/>
<rect x="206.881" y="80.107" fill="#72BF44" width="18.848" height="18.851"/>
<rect x="178.924" y="53.093" fill="#72BF44" width="18.848" height="18.848"/>
<g enable-background="new    ">
	<path fill="#002C43" d="M274.223,109.059c-1.945,0-3.623-0.272-5.035-0.818c-1.413-0.547-2.578-1.306-3.497-2.277
		s-1.599-2.132-2.038-3.478s-0.659-2.83-0.659-4.455V80.807h6.234V97.51c0,1.119,0.126,2.072,0.379,2.857s0.6,1.426,1.039,1.918
		s0.972,0.846,1.598,1.059c0.626,0.214,1.312,0.32,2.058,0.32c1.52,0,2.75-0.466,3.696-1.398c0.945-0.933,1.419-2.518,1.419-4.756
		V80.807h6.234v17.224c0,1.625-0.227,3.116-0.68,4.476c-0.453,1.358-1.146,2.524-2.078,3.497s-2.118,1.725-3.556,2.257
		C277.9,108.792,276.194,109.059,274.223,109.059z"/>
	<path fill="#002C43" d="M318.02,94.633c0,2.371-0.354,4.455-1.059,6.254c-0.707,1.798-1.672,3.304-2.897,4.516
		c-1.225,1.213-2.685,2.125-4.376,2.737s-3.51,0.919-5.455,0.919c-1.891,0-3.676-0.307-5.354-0.919
		c-1.679-0.612-3.145-1.524-4.396-2.737c-1.251-1.212-2.237-2.718-2.957-4.516c-0.719-1.799-1.078-3.883-1.078-6.254
		s0.372-4.456,1.118-6.254c0.745-1.798,1.751-3.311,3.017-4.535s2.73-2.145,4.396-2.758c1.664-0.612,3.416-0.919,5.254-0.919
		c1.893,0,3.678,0.307,5.355,0.919c1.678,0.613,3.143,1.532,4.396,2.758c1.252,1.226,2.237,2.737,2.957,4.535
		C317.661,90.177,318.02,92.262,318.02,94.633z M296.881,94.633c0,1.358,0.166,2.584,0.499,3.677
		c0.333,1.092,0.813,2.031,1.438,2.816c0.625,0.786,1.392,1.393,2.298,1.817c0.905,0.428,1.944,0.641,3.116,0.641
		c1.146,0,2.179-0.213,3.098-0.641c0.919-0.426,1.691-1.031,2.318-1.817c0.625-0.785,1.104-1.726,1.438-2.816
		c0.333-1.093,0.5-2.317,0.5-3.677s-0.167-2.591-0.5-3.696c-0.333-1.104-0.813-2.051-1.438-2.837
		c-0.627-0.786-1.399-1.393-2.318-1.817c-0.919-0.426-1.951-0.641-3.098-0.641c-1.172,0-2.211,0.22-3.116,0.659
		c-0.906,0.439-1.673,1.053-2.298,1.839c-0.626,0.786-1.105,1.731-1.438,2.837C297.047,92.083,296.881,93.301,296.881,94.633z"/>
	<path fill="#002C43" d="M323.214,108.499V80.807h18.702v5.234h-12.469v5.435h11.069v5.115h-11.069v6.674h13.387v5.234H323.214z"/>
	<path fill="#002C43" d="M381.275,94.633c0,2.397-0.373,4.489-1.119,6.273s-1.805,3.264-3.176,4.436
		c-1.373,1.173-3.045,2.052-5.017,2.638s-4.183,0.879-6.633,0.879c-1.119,0-2.426-0.047-3.917-0.14
		c-1.492-0.094-2.957-0.286-4.396-0.579V81.166c1.438-0.267,2.938-0.445,4.496-0.539c1.559-0.094,2.896-0.142,4.017-0.142
		c2.37,0,4.521,0.268,6.452,0.801c1.933,0.532,3.591,1.372,4.977,2.518c1.385,1.146,2.45,2.611,3.196,4.396
		C380.902,89.985,381.275,92.129,381.275,94.633z M363.254,103.424c0.293,0.027,0.632,0.047,1.02,0.061
		c0.386,0.015,0.845,0.021,1.377,0.021c3.117,0,5.429-0.785,6.935-2.357c1.505-1.57,2.258-3.742,2.258-6.514
		c0-2.903-0.719-5.102-2.157-6.594c-1.438-1.491-3.717-2.237-6.832-2.237c-0.429,0-0.867,0.007-1.319,0.021
		c-0.454,0.014-0.88,0.047-1.278,0.101v17.5H363.254z"/>
	<path fill="#002C43" d="M412.844,94.633c0,2.371-0.354,4.455-1.059,6.254c-0.707,1.798-1.672,3.304-2.896,4.516
		c-1.227,1.213-2.686,2.125-4.377,2.737c-1.69,0.612-3.51,0.919-5.455,0.919c-1.891,0-3.676-0.307-5.354-0.919
		s-3.145-1.524-4.396-2.737c-1.252-1.212-2.236-2.718-2.957-4.516c-0.72-1.799-1.078-3.883-1.078-6.254s0.373-4.456,1.119-6.254
		c0.744-1.798,1.75-3.311,3.017-4.535c1.265-1.226,2.729-2.145,4.396-2.758c1.665-0.612,3.416-0.919,5.254-0.919
		c1.894,0,3.679,0.307,5.355,0.919c1.678,0.613,3.143,1.532,4.396,2.758c1.252,1.226,2.236,2.737,2.957,4.535
		C412.484,90.177,412.844,92.262,412.844,94.633z M391.705,94.633c0,1.358,0.166,2.584,0.5,3.677
		c0.332,1.092,0.813,2.031,1.438,2.816c0.627,0.786,1.394,1.393,2.299,1.817c0.904,0.428,1.943,0.641,3.115,0.641
		c1.146,0,2.181-0.213,3.099-0.641c0.92-0.426,1.69-1.031,2.317-1.817c0.625-0.785,1.105-1.726,1.438-2.816
		c0.334-1.093,0.5-2.317,0.5-3.677s-0.166-2.591-0.5-3.696c-0.332-1.104-0.813-2.051-1.438-2.837
		c-0.627-0.786-1.397-1.393-2.317-1.817c-0.918-0.427-1.951-0.641-3.099-0.641c-1.172,0-2.211,0.22-3.115,0.659
		c-0.905,0.439-1.672,1.053-2.299,1.839c-0.625,0.786-1.104,1.731-1.438,2.837C391.871,92.082,391.705,93.301,391.705,94.633z"/>
	<path fill="#002C43" d="M425.391,80.807c0.48,0.879,1.035,1.965,1.664,3.257c0.627,1.292,1.281,2.69,1.963,4.195
		c0.681,1.506,1.355,3.044,2.023,4.615c0.666,1.571,1.295,3.051,1.883,4.437c0.588-1.386,1.215-2.863,1.883-4.437
		c0.668-1.571,1.343-3.109,2.023-4.615c0.682-1.505,1.336-2.903,1.963-4.195c0.629-1.292,1.182-2.378,1.664-3.257h5.674
		c0.267,1.838,0.512,3.896,0.738,6.174s0.426,4.649,0.6,7.113s0.334,4.935,0.48,7.412c0.146,2.477,0.271,4.809,0.379,6.993h-6.074
		c-0.08-2.69-0.186-5.621-0.318-8.791c-0.135-3.17-0.334-6.367-0.6-9.591c-0.481,1.118-1.016,2.356-1.604,3.717
		c-0.588,1.357-1.17,2.717-1.744,4.075s-1.129,2.656-1.664,3.896c-0.533,1.238-0.988,2.298-1.363,3.177h-4.354
		c-0.375-0.879-0.828-1.938-1.363-3.177c-0.533-1.239-1.088-2.537-1.664-3.896c-0.574-1.358-1.154-2.718-1.742-4.075
		c-0.588-1.359-1.123-2.599-1.604-3.717c-0.269,3.224-0.468,6.421-0.601,9.591s-0.24,6.101-0.32,8.791h-6.073
		c0.106-2.186,0.233-4.517,0.381-6.993c0.146-2.478,0.305-4.948,0.479-7.412c0.175-2.464,0.373-4.836,0.601-7.113
		c0.227-2.277,0.473-4.336,0.74-6.174H425.391z"/>
	<path fill="#002C43" d="M480.256,94.633c0,2.371-0.354,4.455-1.059,6.254c-0.705,1.798-1.672,3.304-2.896,4.516
		c-1.227,1.213-2.686,2.125-4.377,2.737c-1.69,0.612-3.51,0.919-5.453,0.919c-1.893,0-3.678-0.307-5.354-0.919
		s-3.144-1.524-4.396-2.737c-1.254-1.212-2.237-2.718-2.957-4.516c-0.721-1.799-1.08-3.883-1.08-6.254s0.373-4.456,1.119-6.254
		s1.752-3.311,3.019-4.535c1.264-1.226,2.729-2.145,4.395-2.758c1.666-0.612,3.418-0.919,5.256-0.919
		c1.892,0,3.677,0.307,5.354,0.919c1.68,0.613,3.145,1.532,4.396,2.758s2.238,2.737,2.957,4.535
		C479.898,90.177,480.256,92.262,480.256,94.633z M459.117,94.633c0,1.358,0.166,2.584,0.5,3.677
		c0.332,1.092,0.813,2.031,1.438,2.816c0.627,0.786,1.394,1.393,2.299,1.817c0.904,0.428,1.943,0.641,3.117,0.641
		c1.146,0,2.179-0.213,3.097-0.641c0.92-0.426,1.69-1.031,2.317-1.817c0.625-0.785,1.105-1.726,1.439-2.816
		c0.332-1.093,0.498-2.317,0.498-3.677s-0.166-2.591-0.498-3.696c-0.334-1.104-0.814-2.051-1.439-2.837
		c-0.627-0.786-1.397-1.393-2.317-1.817c-0.918-0.427-1.951-0.641-3.097-0.641c-1.174,0-2.213,0.22-3.117,0.659
		c-0.905,0.439-1.672,1.053-2.299,1.839c-0.625,0.786-1.104,1.731-1.438,2.837C459.283,92.082,459.117,93.301,459.117,94.633z"/>
	<path fill="#002C43" d="M493.004,103.744c0.879,0,1.604-0.073,2.178-0.221c0.572-0.146,1.031-0.347,1.379-0.6
		c0.347-0.253,0.586-0.553,0.72-0.899c0.133-0.346,0.198-0.731,0.198-1.158c0-0.905-0.426-1.658-1.276-2.259
		c-0.854-0.599-2.318-1.243-4.396-1.938c-0.905-0.32-1.813-0.687-2.717-1.1c-0.906-0.412-1.719-0.933-2.438-1.559
		c-0.722-0.626-1.308-1.385-1.761-2.278c-0.453-0.892-0.678-1.978-0.678-3.257c0-1.277,0.238-2.431,0.719-3.456
		c0.479-1.024,1.158-1.897,2.037-2.617s1.945-1.271,3.197-1.658s2.664-0.579,4.236-0.579c1.862,0,3.477,0.2,4.836,0.6
		c1.356,0.399,2.477,0.839,3.354,1.318L500.795,87c-0.771-0.399-1.631-0.752-2.576-1.06c-0.946-0.306-2.086-0.46-3.418-0.46
		c-1.492,0-2.563,0.207-3.217,0.62c-0.652,0.413-0.979,1.046-0.979,1.897c0,0.507,0.12,0.934,0.358,1.278
		c0.24,0.348,0.58,0.659,1.021,0.938c0.438,0.28,0.944,0.533,1.52,0.76c0.572,0.228,1.205,0.459,1.896,0.699
		c1.438,0.533,2.69,1.059,3.758,1.578c1.063,0.52,1.951,1.126,2.656,1.817c0.704,0.693,1.231,1.507,1.577,2.438
		c0.347,0.933,0.521,2.065,0.521,3.396c0,2.585-0.906,4.59-2.717,6.015c-1.813,1.425-4.543,2.138-8.191,2.138
		c-1.227,0-2.332-0.074-3.316-0.22c-0.985-0.146-1.858-0.327-2.616-0.54c-0.761-0.213-1.414-0.439-1.959-0.679
		c-0.548-0.24-1.007-0.467-1.38-0.681l1.759-4.955c0.825,0.453,1.846,0.859,3.059,1.22
		C489.76,103.564,491.246,103.744,493.004,103.744z"/>
	<path fill="#002C43" d="M536.799,103.145v5.354h-18.502V80.807h6.234v22.338H536.799z"/>
	<path fill="#002C43" d="M558.217,80.807v5.314h-8.352v22.378h-6.232V86.121h-8.352v-5.314H558.217z"/>
	<path fill="#002C43" d="M586.469,94.633c0,2.397-0.373,4.489-1.117,6.273c-0.745,1.784-1.807,3.264-3.178,4.436
		c-1.373,1.173-3.043,2.052-5.016,2.638c-1.971,0.586-4.183,0.879-6.633,0.879c-1.119,0-2.425-0.047-3.916-0.14
		c-1.492-0.094-2.957-0.286-4.396-0.579V81.166c1.439-0.267,2.938-0.445,4.496-0.539s2.896-0.142,4.016-0.142
		c2.371,0,4.521,0.268,6.455,0.801c1.931,0.532,3.588,1.372,4.976,2.518c1.385,1.146,2.45,2.611,3.196,4.396
		C586.096,89.985,586.469,92.129,586.469,94.633z M568.447,103.424c0.293,0.027,0.633,0.047,1.02,0.061
		c0.385,0.015,0.847,0.021,1.379,0.021c3.117,0,5.429-0.785,6.933-2.357c1.506-1.57,2.258-3.742,2.258-6.514
		c0-2.903-0.719-5.102-2.156-6.594c-1.438-1.491-3.717-2.237-6.834-2.237c-0.426,0-0.865,0.007-1.317,0.021
		c-0.453,0.014-0.88,0.047-1.279,0.101v17.5H568.447z"/>
	<path fill="#002C43" d="M595.502,105.342c0,1.199-0.381,2.112-1.139,2.737c-0.76,0.626-1.619,0.938-2.578,0.938
		s-1.818-0.313-2.578-0.938c-0.758-0.625-1.139-1.538-1.139-2.737c0-1.198,0.381-2.11,1.139-2.737
		c0.76-0.625,1.619-0.938,2.578-0.938s1.818,0.313,2.578,0.938C595.121,103.232,595.502,104.144,595.502,105.342z"/>
</g>
<g enable-background="new    ">
	<path d="M-39.492,82.708c1.662-0.277,3.838-0.515,6.608-0.515c3.402,0,5.895,0.791,7.478,2.216
		c1.464,1.266,2.334,3.205,2.334,5.578c0,2.414-0.712,4.313-2.057,5.698c-1.82,1.938-4.788,2.928-8.151,2.928
		c-1.029,0-1.978-0.04-2.77-0.237v10.683h-3.442V82.708z M-36.05,95.567c0.752,0.198,1.701,0.277,2.849,0.277
		c4.155,0,6.687-2.019,6.687-5.697c0-3.521-2.493-5.224-6.291-5.224c-1.504,0-2.651,0.119-3.245,0.277V95.567z"/>
	<path d="M-2.221,99.325c0,7.082-4.906,10.169-9.536,10.169c-5.183,0-9.179-3.799-9.179-9.853c0-6.409,4.194-10.168,9.496-10.168
		C-5.94,89.474-2.221,93.47-2.221,99.325z M-17.414,99.524c0,4.193,2.414,7.359,5.816,7.359c3.323,0,5.816-3.126,5.816-7.438
		c0-3.245-1.622-7.359-5.737-7.359C-15.634,92.085-17.414,95.883-17.414,99.524z"/>
	<path d="M3.279,89.908l2.532,9.733c0.554,2.137,1.068,4.115,1.425,6.094h0.119c0.435-1.939,1.068-3.996,1.701-6.054l3.125-9.773
		h2.928l2.967,9.575c0.712,2.295,1.266,4.313,1.701,6.252h0.119c0.316-1.939,0.831-3.957,1.464-6.212l2.73-9.615h3.442l-6.172,19.15
		h-3.166l-2.928-9.14c-0.673-2.137-1.227-4.036-1.702-6.291h-0.079c-0.475,2.295-1.068,4.273-1.741,6.33l-3.086,9.101H5.495
		l-5.776-19.15H3.279z"/>
	<path d="M32.559,100.116c0.079,4.709,3.086,6.647,6.568,6.647c2.493,0,3.996-0.436,5.302-0.989l0.594,2.493
		c-1.227,0.554-3.324,1.187-6.37,1.187c-5.896,0-9.417-3.877-9.417-9.654c0-5.776,3.403-10.326,8.981-10.326
		c6.251,0,7.914,5.499,7.914,9.021c0,0.713-0.08,1.267-0.119,1.622H32.559z M42.767,97.624c0.04-2.216-0.91-5.658-4.827-5.658
		c-3.521,0-5.064,3.245-5.341,5.658H42.767z"/>
	<path d="M50.442,95.883c0-2.255-0.04-4.193-0.158-5.975h3.047l0.119,3.759h0.158c0.87-2.571,2.967-4.193,5.302-4.193
		c0.396,0,0.673,0.039,0.989,0.118v3.284c-0.356-0.079-0.712-0.118-1.187-0.118c-2.453,0-4.194,1.859-4.669,4.471
		c-0.079,0.475-0.158,1.028-0.158,1.622v10.208h-3.442V95.883z"/>
	<path d="M64.923,100.116c0.079,4.709,3.086,6.647,6.568,6.647c2.493,0,3.996-0.436,5.302-0.989l0.594,2.493
		c-1.227,0.554-3.324,1.187-6.37,1.187c-5.896,0-9.417-3.877-9.417-9.654c0-5.776,3.403-10.326,8.981-10.326
		c6.251,0,7.914,5.499,7.914,9.021c0,0.713-0.08,1.267-0.119,1.622H64.923z M75.131,97.624c0.04-2.216-0.91-5.658-4.827-5.658
		c-3.521,0-5.064,3.245-5.341,5.658H75.131z"/>
	<path d="M99.345,80.967v23.146c0,1.701,0.04,3.64,0.158,4.945h-3.125l-0.158-3.323h-0.079c-1.068,2.137-3.403,3.759-6.528,3.759
		c-4.629,0-8.19-3.917-8.19-9.733c-0.04-6.37,3.917-10.287,8.586-10.287c2.928,0,4.906,1.385,5.777,2.928h0.079V80.967H99.345z
		 M95.864,97.703c0-0.436-0.04-1.028-0.159-1.464c-0.514-2.216-2.413-4.036-5.024-4.036c-3.601,0-5.737,3.166-5.737,7.399
		c0,3.877,1.899,7.082,5.658,7.082c2.334,0,4.471-1.543,5.104-4.154c0.119-0.475,0.159-0.949,0.159-1.504V97.703z"/>
	<path d="M121.739,109.059c0.079-1.306,0.158-3.244,0.158-4.945V80.967h3.442v12.028h0.079c1.227-2.137,3.442-3.521,6.528-3.521
		c4.748,0,8.111,3.956,8.072,9.772c0,6.845-4.313,10.248-8.586,10.248c-2.77,0-4.985-1.068-6.41-3.601h-0.119l-0.158,3.165H121.739z
		 M125.339,101.383c0,0.436,0.079,0.87,0.158,1.266c0.673,2.414,2.69,4.076,5.223,4.076c3.64,0,5.816-2.968,5.816-7.359
		c0-3.838-1.979-7.122-5.698-7.122c-2.374,0-4.589,1.622-5.302,4.273c-0.079,0.396-0.198,0.87-0.198,1.424V101.383z"/>
	<path d="M145.399,89.908l4.194,11.316c0.435,1.266,0.91,2.77,1.227,3.917h0.079c0.356-1.147,0.751-2.611,1.227-3.996l3.798-11.237
		h3.679l-5.223,13.65c-2.493,6.568-4.194,9.932-6.568,11.989c-1.701,1.503-3.403,2.097-4.273,2.255l-0.871-2.928
		c0.871-0.277,2.018-0.831,3.047-1.701c0.949-0.752,2.136-2.098,2.928-3.878c0.158-0.356,0.277-0.633,0.277-0.831
		c0-0.197-0.079-0.475-0.237-0.91l-7.083-17.646H145.399z"/>
</g>
</svg>
